<?xml version="1.0" encoding="UTF-8"?>
<svg id="Layer_2" data-name="Layer 2" xmlns="http://www.w3.org/2000/svg" viewBox="0 0 245.12 242.28">
  <defs>
    <style>
      .cls-1 {
        fill: #000;
      }

      .cls-1, .cls-2, .cls-3, .cls-4, .cls-5 {
        stroke-width: 0px;
      }

      .cls-2 {
        fill: #f7931e;
      }

      .cls-3 {
        fill: #666;
      }

      .cls-4 {
        fill: #29abe2;
      }

      .cls-5 {
        fill: #fcee21;
      }
    </style>
  </defs>
  <g id="Layer_1-2" data-name="Layer 1">
    <g>
      <g>
        <path class="cls-4" d="M34.53,94.5q-8.35-11.87-13.03-13.54c4.59-11.77,11.21-22.3,20.12-31.07,6.72-6.61,14.56-12.07,21.76-18.21,1.75-1.5,3.29-3.47,4.33-5.53,1.36-2.7,10.66-6.75,13.6-5.81,1.74.55,3.79.72,5.58.39,6.85-1.26,13.61-3.15,20.49-4.11,4.94-.69,7.25-2.62,6.63-7.71-.23-1.93-.04-3.91-.04-7,13.36,7.7,25.94,14.95,39.43,22.72-13.24,7.65-25.78,14.9-39.43,22.79,0-3.53-.03-6.07,0-8.6.07-4.19-2.02-5.67-6.03-5-34.31,5.69-58.21,24.58-71.76,56.58-.51,1.21-.98,2.43-1.66,4.1Z"/>
        <path class="cls-1" d="M34.57,94.85c-2.24-2.2-4.41-5.12-6.52-7.49-1.55-1.72-2.84-3.36-4.95-4.11-1.12-.33-2.58-.84-3.75-1.17,0,0,.57-1.73.57-1.73,3.55-10.73,9.18-20.96,16.84-29.57,6.62-7.48,14.54-13.31,22.22-19.47,1.91-1.51,3.99-3.04,5.33-5.1.37-.52.69-1.12,1.03-1.66.56-.91,1.4-1.63,2.21-2.24,2.7-1.85,5.37-2.94,8.45-3.78,1.72-.41,3.15-.74,5.1-.5,1.81.47,3.63,1.1,5.53.79,3.84-.55,10.47-1.72,14.36-2.43,2.01-.37,4.22-.66,6.26-.91,1.72-.21,3.87-.67,4.91-1.97,1.59-1.95.53-5.03.68-7.43.05-2.02.05-4.07.03-6.07,13.72,7.82,31.76,17.06,45.85,24.44-12.55,7.92-30.06,18.35-42.94,26.09,0,0-5.3,3.18-5.3,3.18-.03-3.37-.14-10.33-.17-13.73,0-1.4-.03-2.15-.17-2.52-.06-.17-.09-.17-.01-.09.07.08.2.12.09.09-.5-.12-1.45.02-2.02.14-15.17,2.58-30.1,8.02-42.46,17.32-7.61,5.74-14.36,12.88-19.84,20.68-2.02,2.9-4.08,6.17-5.88,9.24-1.7,3.1-3.72,6.96-5.42,10h0ZM34.49,94.15c1.75-7.2,4.85-13.96,8.38-20.43,10.96-20.13,30.7-35.16,52.86-41.04,3.56-1.01,7.52-1.84,11.17-2.5,3.91-.95,9.05.33,10.33,5.08.61,2,.41,3.76.42,4.81l-.11,7.34-5.38-3.1c11.42-6.39,28.49-15.9,39.91-21.96,0,0,0,4.55,0,4.55-11.47-7.11-27.15-17.41-38.67-24.04,0,0,1.65-.96,1.65-.96,0,2.08-.18,4.14-.08,6.18.21,2.21.44,4.73-1.17,6.74-1.65,2.02-3.97,2.51-6.26,2.94-1.99.36-4.1.76-6.06,1.23-3.87.88-8.22,2.15-12.13,3.12-2.61.76-5.46,1.15-8.13.49-1.17-.38-2.59.18-3.83.59-2.54,1.03-5.63,2.35-7.18,4.32-2.14,4.74-6.66,8.04-10.57,11.27-6.16,4.89-13.35,10.28-18.67,15.9-7.52,7.78-13.44,17-17.92,26.88,0,0-1.01-2.22-1.01-2.22,5.18,1.52,7.73,6.55,10.32,10.77.72,1.15,1.55,2.7,2.11,4.02h0Z"/>
      </g>
      <g>
        <path class="cls-5" d="M217.71,155.93c-7.64-13.26-14.77-25.62-22.52-39.06,3.18,0,5.41.04,7.63,0,5.26-.11,6.64-1.68,5.76-6.74-6.11-34.84-25.45-58.94-58.43-71.96-.45-.18-.84-.52-1.57-.98,4.36-4.13,11.74-4.96,12.77-13.01,4.7,2.38,9.13,4.2,13.14,6.71,29.43,18.42,47.03,44.59,51.2,79.3.59,4.94,2.53,7.29,7.64,6.71,1.92-.22,3.88-.04,6.94-.04-7.73,13.39-14.97,25.91-22.56,39.06Z"/>
        <path class="cls-1" d="M217.71,156.28c-9.02-13.71-18.92-27.8-27.26-42.01,0,0,4.73-.12,4.73-.12,1.91-.13,8.48.02,10.13-.56.33-.1.42-.21.41-.2.08-.42.09-1.45-.14-2.56-.68-3.27-1.52-7.23-2.44-10.44-5.66-21.26-16.57-40.29-35.54-52.22-3.96-2.52-8.57-4.92-12.88-6.77-.75-.28-4.26-1.73-5.08-2.04-.93-.41-1.27-.77-1.78-1.04,0,0-1.5-.79-1.5-.79l1.3-1.28c4.39-4.31,11.26-5.56,11.67-12.31,0,0,.26-2.76.26-2.76,5.82,2.8,12.23,4.9,17.74,8.37,0,0,3.57,2.19,3.57,2.19,25.78,16.64,42.99,41.49,47.34,72.06.13,1.25.63,5,.76,6.23.33,2.85.75,4.17,3.8,3.91,2.49-.2,5.07.1,7.47.17,0,0,4.85.16,4.85.16-8.51,14.14-18.6,28.44-27.41,42.02h0ZM217.71,155.58c7.18-13.71,13.04-26.74,20.16-40.09,0,0,2.4,4.15,2.4,4.15-2.82.04-5.43.06-8.16.39-7.19.27-9.27-5.04-10.01-11.15-.64-3.83-1.43-7.98-2.43-11.7-5.22-20.55-16.53-39.38-32.6-53.26-4.97-4.32-10.4-8.47-15.93-12.04-3.46-2.13-7.1-3.86-10.71-5.89,0,0,2.93-1.55,2.93-1.55-1.33,8.46-8.52,9.51-13.88,13.71,0,0-.2-2.07-.2-2.07.54.36,1.13.82,1.33.9l1.69.76c4.41,1.96,9.12,4.23,13.26,6.72,21.13,12.15,37.36,30.4,43.67,54.27.57,2.12,1.36,5.22,1.7,7.37,1,4.75,2.48,11.28-3.86,13.18-2.94.92-8.84.26-11.88.32,0,0,2.36-4.08,2.36-4.08,7.05,12.91,13.37,26.92,20.17,40.07h0Z"/>
      </g>
      <g>
        <path class="cls-2" d="M.31,127.38c7.34-12.71,14.13-24.47,21.57-37.35,7.35,12.72,14.18,24.53,21.56,37.29-2.88.18-4.92.26-6.95.44-5.26.48-6.72,2.25-5.88,7.53,2.9,18.19,10.15,34.39,22.82,47.86,4.2,4.46,9.3,8.05,13.63,12.41,1.77,1.79,3.31,4.45,3.64,6.89.58,4.33.16,8.8.16,13.21-.54.35-1.08.7-1.62,1.05-6.13-4.37-12.63-8.31-18.31-13.2-21.33-18.36-33.76-41.59-36.78-69.68-.43-4.02-2.44-5.98-6.42-6.09-2.13-.06-4.26-.2-7.41-.35Z"/>
        <path class="cls-1" d="M0,127.55c6.92-14.18,13.98-29.33,21.72-43.09,2.68,4.39,5.57,8.98,8.17,13.37,6.33,10.45,12.34,21.15,17.87,32.05-3.54.12-7.58.15-11.09.18-3.26.17-4.73.39-4.46,4.07,1.47,17.14,8.74,33.86,20.91,46.11,3.12,3.34,6.71,6,10.44,8.91,4.31,3.33,9.25,7.18,10.08,13.03.69,4.41.4,9.15.48,13.48,0,0,.04,1.71.04,1.71,0,0-1.53,1.03-1.53,1.03-.84.57-2.56,1.73-3.4,2.3,0,0-1.91-1.3-1.91-1.3-6.17-4.2-12.96-8.19-18.84-13.12-5.93-5.05-11.43-10.64-16.1-16.88-11.05-14.4-17.7-31.99-19.47-50.01,0,0-.28-3.83-.28-3.83-.14-1.95-.09-4.56-1.83-5.8-.77-.57-1.84-.89-2.99-1.03-2.58-.27-5.32-.82-7.8-1.17h0ZM.61,127.21c6.41-.21,13.45-2.46,15.08,6.04.22,1.14.82,4.35,1.05,5.53,5.39,26.66,20.6,49.99,42.18,66.43,3.92,2.92,8.1,5.73,12.23,8.79,0,0-3.71-.08-3.71-.08,0,0,1.64-1.02,1.64-1.02,0,0-1.49,2.74-1.49,2.74.05-2.44.2-4.77.29-7.02.14-3.98.31-7.91-2.65-11.09-4.64-5.09-10.4-9.5-14.69-15.01-11.32-13.78-18.34-30.61-21.8-48.01-1.8-9.61,7.91-9.01,14.52-9.87,0,0-2.14,4-2.14,4-7.81-12.06-14.82-24.6-21.67-37.23,0,0,4.84,0,4.84,0-7.32,12.03-15.96,23.9-23.68,35.79h0Z"/>
      </g>
      <g>
        <path class="cls-3" d="M124.57,241.97c-12.6-7.27-24.36-14.05-37.21-21.46,12.71-7.36,24.52-14.19,37.21-21.53.14,2.86.19,4.77.33,6.67.41,5.5,2.28,7.02,7.8,6.13,17.5-2.81,33.1-9.76,46.42-21.55,2.74-2.42,5.23-5.13,7.82-7.73,2.54-2.56,4.71-6.7,7.66-7.37,5.32-1.21,11.11-.34,18.22-.34-4.12,5.8-7.19,10.9-11.03,15.33-4.45,5.15-9.52,9.77-14.43,14.51-2.79,2.69-5.53,4.88-7.27,8.95-1.28,2.99-7.06,4.28-11.03,5.82-2,.78-4.51.15-6.66.68-10.6,2.62-21.12,5.56-31.74,8.08-3.39.8-5.47,2.18-5.66,5.78-.13,2.31-.26,4.61-.44,8.02Z"/>
        <path class="cls-1" d="M124.74,242.28c-13.32-6.48-30.16-14.36-42.97-21.6,13.56-8.42,27.26-16.71,41.48-23.97,0,0,3.95-2.05,3.95-2.05,0,0,0,4.2,0,4.2,0,0,0,6.84,0,6.84.05,1.41.11,2.66.75,3.69,1.53,1.56,4.42.68,6.54.52,2.26-.28,4.5-.68,6.72-1.16,15.58-3.32,29.87-11.87,40.4-23.78.95-1.09,3.02-3.38,3.97-4.48,2.01-2.35,3.75-6.04,7.25-7.69,6.36-2.23,13.8-1.02,20-1.29,0,0,6.34-.16,6.34-.16-4.17,5.83-7.8,11.93-12.1,17.91-5.49,7.39-12.01,13.2-18.53,19.41-2.68,2.35-4.17,4.23-5.72,7.42-3.18,4.25-8.22,4.78-12.65,6.44-3.31,1.1-5.07.06-7.83.79-6.09,1.3-12.29,2.67-18.38,3.89-4.73,1.03-9.81,1.87-14.54,2.91-1.87.48-3.05,1.69-3.32,3.53-.06.24-.11.7-.14.94-.32,2.6-.86,5.2-1.22,7.69h0ZM124.41,241.66c.02-3.19-.62-6.19-.3-9.3.58-4.08,4.63-5.38,7.99-6.34,0,0,3.58-1.14,3.58-1.14,8.33-2.64,16.78-5.13,25.17-7.6,0,0,.95-.26.95-.26,1.7-.52,4.83-.2,6.06-.69,2.24-.93,4.68-1.7,6.76-2.7,1.07-.51,1.84-.98,2.18-1.47.18-.56.79-1.75,1.16-2.39,2.01-3.57,5.31-6.33,8.14-9.12,0,0,5.4-5.17,5.4-5.17,3.52-3.43,7.04-6.85,9.91-10.53,2.93-3.76,5.71-7.96,8.75-12.06,0,0,2.68,5.18,2.68,5.18-5.89-.03-11.74-1.11-17.49-.21-.46.06-.7.2-1.18.53-2.02,1.58-3.74,4.19-5.78,5.99-.76.69-3,2.79-3.8,3.53-5.14,4.79-10.98,8.92-17.02,12.47-11.16,6.48-23.41,10.83-36.07,13.27-9.43,1.53-8.79-8.04-9.55-14.53,0,0,3.94,2.15,3.94,2.15-12.02,7.82-24.52,14.85-37.13,21.68,0,0,0-4.86,0-4.86,11.98,7.29,23.81,15.88,35.64,23.58h0Z"/>
      </g>
    </g>
  </g>
</svg>