<?xml version="1.0" encoding="UTF-8"?>
<svg id="Layer_2" data-name="Layer 2" xmlns="http://www.w3.org/2000/svg" viewBox="0 0 383.42 383.32">
  <defs>
    <style>
      .cls-1 {
        fill: #000;
        stroke-width: 0px;
      }
    </style>
  </defs>
  <g id="Layer_1-2" data-name="Layer 1">
    <g>
      <path class="cls-1" d="M383.42,209.61c-1.5,6.52-2.51,13.2-4.59,19.53-13.05,39.64-55.39,63.36-96.1,53.93-3.13-.72-4.85.05-6.89,2.42-24.29,28.3-48.68,56.51-73.12,84.68-9.46,10.9-21.51,15.34-35.6,12.13-13.59-3.09-22.67-11.76-26.49-25.26-3.47-12.28-.73-23.48,7.55-33.17,11.02-12.9,22.17-25.68,33.26-38.51.97-1.12,1.89-2.27,3.58-4.3-2.22,0-3.59,0-4.96,0-41.17,0-82.34.01-123.51-.01-12.42,0-21.27-6.44-23.83-17.41-.56-2.39-.59-4.94-.59-7.42-.04-31.18-.02-62.37-.02-93.55,0-1.35,0-2.69,0-4.29-1.08.23-1.8.33-2.5.53-6.14,1.75-11.33.22-15.49-4.61-3.34-3.87-6.63-7.79-9.87-11.74-6.14-7.47-5.62-15.64,1.59-22.21,25.92-23.6,51.89-47.13,77.85-70.69,15.89-14.42,31.72-28.9,47.7-43.21C134.2,3.93,137.66,2.13,140.83,0c2,0,3.99,0,5.99,0,3.18,2.11,6.67,3.88,9.49,6.39,12.12,10.77,24.04,21.76,36.04,32.66,1.7,1.55,3.42,3.07,5.6,5.02.13-1.37.22-1.95.24-2.54.43-10.87,5.8-16,16.78-16.01,7.73,0,15.47,0,23.2,0,12.07,0,17.42,5.28,17.43,17.22,0,16.84-.06,33.67.1,50.51.02,1.73.89,3.92,2.13,5.09,7.7,7.29,15.56,14.4,23.51,21.41,1.02.9,2.84,1.33,4.26,1.27,6.71-.29,13.4-.97,20.1-1.23,5.59-.21,10.03,2.11,12.35,7.37,2.32,5.25.87,9.88-2.84,14.11-9.2,10.51-17.93,21.46-27.57,31.54-5.44,5.69-7.46,11.06-5.45,18.83,2.22,8.63,3.11,17.61,4.64,26.79,1.77,0,3.25-.02,4.72,0,9.48.13,18.96.13,28.43.48,3.17.12,5.25-.75,7.33-3.21,10.63-12.56,21.47-24.95,32.25-37.4,3.29-3.8,7.42-5.5,12.37-4.27,5.2,1.3,8.33,4.75,9.37,10.04.69,3.52,1.41,7.04,2.12,10.55v14.97ZM102.36,268.25c0-1.88,0-3.35,0-4.82,0-21.33-.04-42.67.02-64,.04-12.74,7.87-20.51,20.55-20.54,13.6-.03,27.2-.01,40.8,0,14.15,0,21.64,7.51,21.65,21.74.02,20.96,0,41.92,0,62.87,0,1.45,0,2.9,0,4.74,2.1,0,3.71-.17,5.28.03,3.95.51,6.62-.92,9.2-4.08,7.26-8.89,14.85-17.5,22.49-26.06,1.87-2.09,1.9-3.71.95-6.24-8.38-22.38-7.62-44.55,3.01-65.96,3.72-7.49,8.97-14.22,13.68-21.54-31.72-28.82-63.89-58.04-96.04-87.25-.85.67-1.26.96-1.62,1.29-31.87,28.92-63.76,57.83-95.54,86.85-1.15,1.05-1.84,3.2-1.85,4.84-.1,35.43-.09,70.86-.07,106.29,0,8.39,3.4,11.79,11.81,11.81,13.23.03,26.45,0,39.68,0,1.84,0,3.69,0,5.98,0ZM305.71,132.65c-1.74-.12-2.81-.24-3.88-.26-50.82-1.22-86.08,51.56-65.28,97.99,2.41,5.38,1.72,9.02-2.09,13.38-25.54,29.2-50.87,58.58-76.21,87.95-8.98,10.41-8.19,24.55,1.65,33.11,9.94,8.65,24.19,7.33,33.3-3.18,25.65-29.6,51.32-59.18,76.82-88.91,3.27-3.81,6.48-4.58,11.14-3.23,36.58,10.59,74.46-9.59,86.14-45.82,3.8-11.79,4.54-23.78,1.6-36.46-1.19,1.31-2.03,2.19-2.82,3.1-10.94,12.63-21.8,25.34-32.91,37.83-1.57,1.76-4.34,3.46-6.56,3.47-14.84.02-29.69-.36-44.52-.75-4.59-.12-6.48-2-7.21-6.5-2.32-14.14-4.53-28.3-7-42.41-.58-3.29.14-5.79,2.28-8.21,5.61-6.36,11.13-12.8,16.67-19.22,6.16-7.13,12.32-14.27,18.89-21.89ZM268.98,125.24c-.91-.55-1.63-.85-2.17-1.35-40.09-36.4-80.18-72.79-120.2-109.26-2.17-1.97-3.47-1.79-5.54.1-25.26,23.04-50.59,45.99-75.9,68.96-16.63,15.09-33.22,30.22-49.93,45.23-2.5,2.24-2.86,3.96-.46,6.45,2.51,2.6,4.72,5.48,7.05,8.25,3.29,3.92,3.31,3.94,7.09.51,36.31-32.95,72.62-65.9,108.93-98.85,4.72-4.29,7.25-4.35,11.89-.14,24.84,22.56,49.68,45.14,74.52,67.7,8.67,7.87,17.34,15.74,25.81,23.43,6.2-3.62,12.08-7.06,18.91-11.05ZM172.37,268.05c.08-1.35.19-2.33.19-3.31,0-21.58.02-43.16,0-64.74,0-6.4-2.07-8.36-8.62-8.36-13.35,0-26.7,0-40.05,0-6.77,0-8.71,1.91-8.72,8.62-.01,21.33,0,42.66,0,63.99,0,1.21.12,2.42.2,3.8h57ZM242.81,84.8c0-15.32-.02-29.52.02-43.72,0-2.46-1.39-2.83-3.39-2.82-8.35.03-16.71.08-25.06-.02-2.66-.03-3.5,1.08-3.42,3.59.12,3.74-.18,7.5.13,11.21.14,1.65.92,3.62,2.08,4.75,5.2,5.02,10.63,9.79,15.99,14.65,4.3,3.9,8.61,7.8,13.65,12.36Z"/>
      <path class="cls-1" d="M196.32,330.69c-1.18,2.34-1.71,4.04-2.75,5.32-3.45,4.23-7.02,8.37-10.66,12.44-2.89,3.23-6.72,3.59-9.51,1.07-2.64-2.38-2.77-6.21-.15-9.34,3.66-4.38,7.39-8.71,11.19-12.97,1.9-2.12,4.52-3.14,7.03-1.57,1.9,1.18,3.22,3.29,4.86,5.05Z"/>
    </g>
  </g>
</svg>