<?xml version="1.0" encoding="UTF-8"?>
<svg id="Layer_2" data-name="Layer 2" xmlns="http://www.w3.org/2000/svg" viewBox="0 0 132.77 132.77">
  <defs>
    <style>
      .cls-1, .cls-2, .cls-3 {
        stroke: #000;
        stroke-miterlimit: 10;
      }

      .cls-1, .cls-3 {
        fill: #000;
      }

      .cls-2, .cls-4 {
        fill: none;
      }

      .cls-3 {
        stroke-width: .75px;
      }

      .cls-4 {
        stroke-width: 0px;
      }
    </style>
  </defs>
  <g id="Layer_3" data-name="Layer 3">
    <rect class="cls-4" width="132.77" height="132.77"/>
  </g>
  <g id="Layer_2-2" data-name="Layer 2">
    <g>
      <path class="cls-4" d="M10.05,122.15c0-42.12-2.26-108.76,3.15-114.35C26.5-.12,94.62-17.1,81.09,52.95c6.45,4.3,51.75,64.98,49.61,68.58s-77.23.62-120.64.62ZM13.21,96.43c.02,3.37,1.61,4.93,5,4.94,3.68.02,7.36.08,11.03-.06.73-.03,1.44-.85,2.16-1.31-.73-.44-1.45-1.24-2.2-1.27-3.52-.14-7.06-.14-10.58-.03-2.08.07-2.77-.77-2.74-2.79.08-5.85.03-11.71.04-17.57,0-.58.1-1.15.17-1.9,6.8,0,13.46,0,20.13,0,3.53,0,7.06.06,10.58-.06.6-.02,1.17-.83,1.76-1.28-.57-.46-1.11-.97-1.73-1.34-.28-.16-.73-.02-1.11-.02-9.08,0-18.16,0-27.25,0-.8,0-1.59,0-2.45,0v-35.52h54.92c0,4.86,0,9.57,0,14.28,0,1.58-.1,3.17.09,4.72.07.55.85,1.01,1.31,1.51.43-.51,1.01-.97,1.26-1.56.21-.51.05-1.18.05-1.78,0-5.69,0-16.4,0-16.4l-.05-2.18s.06-1.07.05-2.36c0-.22,0-1.1,0-1.98,0-4.95.05-9.91-.02-14.86-.04-3.3-1.61-4.85-4.86-4.86-16.89-.02-33.78-.02-50.67.01-3.33,0-4.87,1.65-4.88,5.07-.02,5.1,0,10.21-.01,15.32,0,.72-.1,2.15-.1,2.15M73.76,120.24c16.06,0,32.12.01,48.17-.03,1.21,0,3.2.72,3.26-1.27.06-2.04-1.95-1.38-3.15-1.38-32.11-.03-64.23-.03-96.34-.03-.53,0-1.12-.15-1.56.05-.59.27-1.05.82-1.56,1.25.55.47,1.04,1.07,1.68,1.35.5.22,1.18.05,1.78.05,15.91,0,31.82,0,47.72,0ZM63.86,73.03c-3.66.08-5.52,1.26-7.07,3.19-8.75,10.86-17.54,21.7-26.31,32.54-.33.41-.84.81-.9,1.26-.07.56.08,1.33.44,1.71.23.24,1.13.1,1.54-.16.54-.35.91-.98,1.34-1.5,8.58-10.61,17.16-21.23,25.75-31.83,2.67-3.3,5.27-3.34,7.92-.08,8.13,10.01,16.23,20.05,24.34,30.08.8.99,1.51,2.09,2.45,2.93.48.43,1.37.39,2.07.57.01-.72.24-1.54-.02-2.15-.35-.8-1.08-1.42-1.65-2.12-8.6-10.6-17.15-21.23-25.86-31.73-1.18-1.42-3.2-2.15-4.04-2.69ZM121.9,110.4c-.45-.65-.82-1.28-1.28-1.85-3.91-4.85-7.83-9.68-11.74-14.52-7.59-9.39-15.17-18.79-22.79-28.15-2.93-3.61-7.62-4.02-10.59-.91-1.5,1.57-2.85,3.29-4.1,5.07-.34.48-.05,1.41-.04,2.13.71-.18,1.61-.15,2.08-.58.98-.9,1.74-2.05,2.59-3.1,3.18-3.94,5.51-3.97,8.65-.09,11.13,13.76,22.26,27.52,33.39,41.28.47.58.9,1.23,1.49,1.67.34.25,1,.29,1.42.15.34-.11.55-.63.92-1.09ZM51.75,56.83c-.11-.51-.03-1.69-.58-2.37-2.22-2.78-4.6-5.44-7.04-8.03-.24-.26-1.48,0-1.9.39-1.82,1.67-3.61,3.39-5.21,5.26-2.24,2.6-2.4,6.88-.56,9.66,2.1,3.17,5.83,4.55,9.42,3.48,3.39-1.01,5.87-4.37,5.87-8.39ZM67.73,90.59c-.08-6.49.95-5.86-5.61-5.83-6.6.03-6.03-1-6,5.93.02,6.74-.58,5.67,5.76,5.68,6.71,0,5.77.98,5.86-5.77ZM80.02,105.06c-.2-.41-.28-.81-.53-1.06-2.05-2.09-4.06-4.22-6.25-6.15-.38-.34-1.75-.11-2.25.32-1.91,1.68-3.62,3.58-5.46,5.35-1.02.99-1.07,1.86-.04,2.86,1.83,1.78,3.64,3.58,5.41,5.41,1,1.03,1.86,1.02,2.85-.02,1.76-1.84,3.61-3.61,5.39-5.43.35-.36.58-.83.87-1.28ZM52.12,97.25c-.36.19-.68.27-.88.47-2.13,2.11-4.3,4.18-6.31,6.41-.31.35-.11,1.63.3,2.08,1.75,1.95,3.68,3.74,5.51,5.61.9.93,1.75,1.03,2.69.07,1.84-1.87,3.69-3.73,5.56-5.57.95-.93.89-1.81-.02-2.71-1.86-1.85-3.71-3.71-5.59-5.54-.35-.34-.84-.55-1.27-.82Z"/>
      <path class="cls-1" d="M13.09,38.87c-1.24-.84-2.13-1.44-3.03-2.05.82-.64,1.65-1.28,2.47-1.92.19.14.38.27.57.41.04-.72.1-1.43.1-2.15,0-5.1,0-10.21.01-15.32.01-3.42,1.55-5.07,4.88-5.07,16.89-.03,33.78-.03,50.67-.01,3.25,0,4.82,1.55,4.86,4.86.06,4.95.02,9.91.02,14.86,0,.88,0,1.76,0,1.98,1.36,1.02,2.24,1.69,3.13,2.36-.88.62-1.77,1.23-3.13,2.18,0,5.03,0,10.72,0,16.4,0,.6.16,1.27-.05,1.78-.25.59-.82,1.05-1.26,1.56-.46-.5-1.24-.96-1.31-1.51-.19-1.56-.08-3.15-.09-4.72,0-4.71,0-9.42,0-14.28H16.02v35.52c.86,0,1.66,0,2.45,0,9.08,0,18.16,0,27.25,0,.38,0,.83-.14,1.11.02.62.37,1.16.88,1.73,1.34-.59.45-1.16,1.25-1.76,1.28-3.52.12-7.05.06-10.58.06-6.67,0-13.34,0-20.13,0-.07.75-.17,1.32-.17,1.9-.01,5.86.04,11.71-.04,17.57-.03,2.02.66,2.86,2.74,2.79,3.52-.11,7.06-.11,10.58.03.75.03,1.47.83,2.2,1.27-.72.46-1.42,1.28-2.16,1.31-3.67.14-7.35.08-11.03.06-3.39-.01-4.98-1.57-5-4.94-.03-5.78,0-11.56,0-17.34,0-.81,0-1.63,0-2.44-.17.13-.34.26-.5.39-.88-.69-1.77-1.37-2.65-2.06.9-.59,1.79-1.18,3.04-2v-34.12ZM70.93,35.32c0-5.83,0-11.38,0-16.92,0-2.66-.29-2.96-2.97-2.97-5.7,0-11.41.03-17.11.03-10.73,0-21.47.03-32.2-.03-2.03-.01-2.86.7-2.76,2.77.12,2.62.03,5.25.03,7.88,0,3.05,0,6.09,0,9.25h55.02Z"/>
      <path class="cls-1" d="M73.76,120.24c-15.91,0-31.82,0-47.72,0-.6,0-1.28.17-1.78-.05-.63-.28-1.12-.89-1.68-1.35.51-.43.97-.98,1.56-1.25.43-.2,1.03-.05,1.56-.05,32.11,0,64.23,0,96.34.03,1.2,0,3.22-.66,3.15,1.38-.06,1.99-2.06,1.26-3.26,1.27-16.06.04-32.12.03-48.17.03Z"/>
      <path class="cls-1" d="M63.86,73.03c.83.54,2.85,1.27,4.04,2.69,8.72,10.5,17.26,21.14,25.86,31.73.57.7,1.3,1.32,1.65,2.12.26.6.03,1.42.02,2.15-.7-.17-1.59-.14-2.07-.57-.94-.84-1.65-1.93-2.45-2.93-8.11-10.03-16.21-20.06-24.34-30.08-2.65-3.26-5.24-3.22-7.92.08-8.59,10.61-17.17,21.22-25.75,31.83-.42.52-.79,1.15-1.34,1.5-.41.26-1.32.4-1.54.16-.36-.38-.51-1.15-.44-1.71.06-.45.57-.85.9-1.26,8.77-10.84,17.56-21.68,26.31-32.54,1.55-1.93,3.42-3.11,7.07-3.19Z"/>
      <path class="cls-1" d="M121.9,110.4c-.37.47-.58.98-.92,1.09-.43.14-1.08.1-1.42-.15-.59-.44-1.02-1.09-1.49-1.67-11.13-13.76-22.26-27.52-33.39-41.28-3.14-3.88-5.47-3.85-8.65.09-.85,1.05-1.61,2.2-2.59,3.1-.47.43-1.37.4-2.08.58,0-.72-.3-1.65.04-2.13,1.25-1.78,2.6-3.5,4.1-5.07,2.98-3.12,7.66-2.7,10.59.91,7.62,9.37,15.19,18.77,22.79,28.15,3.91,4.84,7.84,9.67,11.74,14.52.46.57.83,1.2,1.28,1.85Z"/>
      <path class="cls-3" d="M51.75,56.83c0,4.02-2.49,7.38-5.87,8.39-3.59,1.07-7.32-.3-9.42-3.48-1.84-2.79-1.68-7.06.56-9.66,1.61-1.87,3.4-3.59,5.21-5.26.43-.39,1.66-.65,1.9-.39,2.44,2.59,4.81,5.25,7.04,8.03.54.68.46,1.85.58,2.37ZM43.45,49.41c-1.51,1.51-3.04,2.84-4.34,4.37-1.95,2.3-1.6,5.65.63,7.7,2.05,1.87,5.33,1.87,7.37,0,2.27-2.08,2.62-5.35.65-7.68-1.29-1.53-2.81-2.86-4.32-4.38Z"/>
      <path class="cls-1" d="M67.73,90.59c-.08,6.76.85,5.78-5.86,5.77-6.34,0-5.74,1.07-5.76-5.68-.02-6.93-.6-5.91,6-5.93,6.57-.03,5.53-.66,5.61,5.83ZM64.88,93.57v-5.97h-5.95v5.97h5.95Z"/>
      <path class="cls-1" d="M80.02,105.06c-.3.45-.53.92-.87,1.28-1.78,1.82-3.62,3.59-5.39,5.43-.99,1.04-1.85,1.05-2.85.02-1.77-1.83-3.58-3.63-5.41-5.41-1.03-1-.98-1.87.04-2.86,1.84-1.77,3.55-3.67,5.46-5.35.5-.44,1.86-.66,2.25-.32,2.18,1.94,4.2,4.06,6.25,6.15.24.25.33.64.53,1.06ZM76.4,105.15c-1.39-1.5-2.7-2.91-4.12-4.44-1.33,1.5-2.64,2.98-3.74,4.22,1.17,1.33,2.46,2.82,3.81,4.37,1.46-1.49,2.76-2.82,4.05-4.15Z"/>
      <path class="cls-1" d="M52.12,97.25c.42.27.91.47,1.27.82,1.88,1.83,3.73,3.69,5.59,5.54.91.9.97,1.78.02,2.71-1.87,1.84-3.72,3.7-5.56,5.57-.94.96-1.79.85-2.69-.07-1.83-1.88-3.76-3.66-5.51-5.61-.41-.45-.61-1.73-.3-2.08,2-2.22,4.18-4.3,6.31-6.41.2-.2.52-.28.88-.47ZM56.14,105.17c-1.37-1.54-2.65-2.98-3.84-4.32-1.55,1.44-2.99,2.8-4.35,4.06,1.44,1.54,2.76,2.95,4.17,4.45,1.44-1.5,2.78-2.9,4.02-4.19Z"/>
      <path class="cls-2" d="M70.93,35.32H15.91c0-3.15,0-6.2,0-9.25,0-2.63.1-5.26-.03-7.88-.1-2.07.73-2.78,2.76-2.77,10.73.06,21.47.04,32.2.03,5.7,0,11.41-.04,17.11-.03,2.69,0,2.97.3,2.97,2.97,0,5.55,0,11.1,0,16.92Z"/>
      <path class="cls-2" d="M43.45,49.41c1.51,1.52,3.03,2.85,4.32,4.38,1.97,2.33,1.63,5.6-.65,7.68-2.04,1.87-5.33,1.87-7.37,0-2.24-2.04-2.59-5.4-.63-7.7,1.3-1.53,2.82-2.86,4.34-4.37Z"/>
      <path class="cls-2" d="M64.88,93.57h-5.95v-5.97h5.95v5.97Z"/>
      <path class="cls-2" d="M76.4,105.15c-1.3,1.33-2.6,2.66-4.05,4.15-1.35-1.55-2.65-3.03-3.81-4.37,1.1-1.24,2.42-2.73,3.74-4.22,1.43,1.53,2.73,2.94,4.12,4.44Z"/>
      <path class="cls-2" d="M56.14,105.17c-1.24,1.29-2.57,2.69-4.02,4.19-1.4-1.5-2.73-2.91-4.17-4.45,1.35-1.26,2.8-2.62,4.35-4.06,1.19,1.34,2.47,2.78,3.84,4.32Z"/>
    </g>
  </g>
</svg>