<?xml version="1.0" encoding="UTF-8"?>
<svg id="Layer_2" data-name="Layer 2" xmlns="http://www.w3.org/2000/svg" viewBox="0 0 176.25 160.5">
  <defs>
    <style>
      .cls-1 {
        fill: #000;
      }

      .cls-1, .cls-2 {
        stroke-width: 0px;
      }

      .cls-2 {
        fill: #fff;
      }
    </style>
  </defs>
  <g id="Layer_2-2" data-name="Layer 2">
    <g>
      <path class="cls-2" d="M176.25,160.5H0V0h176.25v160.5ZM46.65,85.49c-1.55,2.72-3.92,5.28-4.45,8.18-.73,4.08-.57,8.47.04,12.6,3.97,26.88,27.35,44.86,54.59,42.2,25.34-2.48,44.4-25.05,43.66-51.37-.14-4.9-2.05-8.34-5.81-11.42,4.69,21.82-1.43,39.71-17.24,50.82-15.07,10.59-34.68,11.53-49.87,1.65-19.13-12.44-25.23-30.29-20.93-52.67ZM102.55,100.8c0-1.9,0-3.25,0-4.59,0-9.44-.09-18.88.05-28.32.04-2.93-.97-3.96-3.89-3.86-5.09.18-10.19.19-15.28,0-2.99-.11-3.88,1.09-3.85,3.93.11,9.44.05,18.88.04,28.32,0,1.44-.13,2.87-.2,4.53-2.03,0-3.64-.12-5.23.05-.89.09-2.32.48-2.47,1.02-.24.85.12,2.18.72,2.9,5.47,6.6,11.04,13.11,16.57,19.66,1.3,1.54,2.62,1.86,4.02.21,5.71-6.72,11.46-13.42,17.06-20.23,1.71-2.08.91-3.49-1.79-3.6-1.73-.07-3.46-.01-5.73-.01ZM129.44,69.3c.23-.35.46-.7.69-1.05-.65-1.16-1.28-2.34-1.96-3.48-10.68-17.93-21.31-35.88-32.17-53.7-.91-1.49-3.46-2.95-5.08-2.79-1.81.18-4.05,1.85-5.05,3.51-7.51,12.44-14.7,25.08-22.13,37.56-3.8,6.38-7.89,12.58-11.94,19.01,2.92,1,4.48.42,5.93-1.97,4.9-8.08,10.24-15.89,15.09-23.99,5.55-9.27,10.73-18.76,16.12-28.13.51-.89,1.42-1.55,2.14-2.31.73.75,1.66,1.38,2.16,2.26,1.23,2.16,2.11,4.52,3.4,6.63,9.45,15.49,18.92,30.97,28.56,46.34.72,1.14,2.81,1.42,4.26,2.11ZM48.76,69.4c0-.95,0-2.3,0-3.65,0-7.08-.14-14.16.06-21.24.09-3.32-1.13-4.43-4.35-4.2-3.09.22-6.21.05-9.32.05q-5.89,0-5.89,5.93c0,7.92,0,15.83,0,23.84-1.16.08-1.91.03-2.6.21-1.34.36-2.65.85-3.98,1.29.61,1.27.99,2.71,1.85,3.77,3.85,4.71,7.92,9.25,11.73,13.99,1.98,2.47,3.48,2.65,5.53.08,3.32-4.18,6.94-8.12,10.28-12.29,1.33-1.66,2.24-3.65,3.34-5.48-1.98-.69-3.96-1.37-6.65-2.3ZM133.48,70.16c-1.29.08-1.92.04-2.5.18-1.36.33-2.7.75-4.04,1.14.53,1.28.81,2.78,1.65,3.81,3.99,4.91,8.17,9.67,12.2,14.55,1.67,2.03,3.05,2.12,4.76.02,3.46-4.23,7.13-8.28,10.53-12.55,1.38-1.73,2.28-3.84,3.4-5.78-1.96-.46-3.93-.91-5.89-1.37-.1-.02-.18-.14-.65-.53,0-.9,0-2.11,0-3.33,0-7.2-.16-14.4.06-21.6.11-3.51-1.18-4.64-4.56-4.4-3.34.24-6.7.05-10.06.06q-4.91,0-4.92,4.99c0,8.17,0,16.34,0,24.8ZM88.77,139.85c15.41.15,28.25-6.48,35.38-17.37.71-1.08.43-2.81.61-4.23-1.25.66-2.93,1-3.68,2.03-15.26,20.81-44.07,21.1-59.56.59-.77-1.02-2.46-1.34-3.72-1.99.19,1.4-.09,3.13.64,4.14,7.96,11.02,18.89,16.5,30.33,16.84Z"/>
      <path class="cls-1" d="M46.65,85.49c-4.3,22.38,1.8,40.22,20.93,52.67,15.19,9.88,34.8,8.94,49.87-1.65,15.81-11.11,21.94-29,17.24-50.82,3.75,3.08,5.67,6.52,5.81,11.42.73,26.32-18.32,48.89-43.66,51.37-27.24,2.66-50.63-15.32-54.59-42.2-.61-4.14-.77-8.53-.04-12.6.52-2.9,2.9-5.47,4.45-8.18Z"/>
      <path class="cls-1" d="M102.55,100.8c2.27,0,4-.06,5.73.01,2.7.12,3.5,1.52,1.79,3.6-5.6,6.81-11.35,13.5-17.06,20.23-1.4,1.65-2.72,1.33-4.02-.21-5.53-6.55-11.11-13.06-16.57-19.66-.6-.72-.95-2.05-.72-2.9.15-.54,1.58-.93,2.47-1.02,1.59-.16,3.21-.05,5.23-.05.08-1.65.2-3.09.2-4.53.02-9.44.08-18.88-.04-28.32-.03-2.84.85-4.04,3.85-3.93,5.09.18,10.19.17,15.28,0,2.92-.1,3.93.93,3.89,3.86-.14,9.44-.05,18.88-.05,28.32,0,1.35,0,2.69,0,4.59ZM104.57,104.9q-5.9-.61-5.9-6.11c0-8.93,0-17.87,0-26.8,0-1.3-.11-2.61-.17-3.79h-14.99c0,10.21,0,20.13,0,30.05q0,5.86-5.72,6.85c4.5,5.32,8.82,10.43,13.31,15.73,4.63-5.47,8.85-10.46,13.47-15.92Z"/>
      <path class="cls-1" d="M129.44,69.3c-1.45-.68-3.54-.96-4.26-2.11-9.64-15.37-19.11-30.85-28.56-46.34-1.29-2.11-2.17-4.48-3.4-6.63-.5-.88-1.43-1.51-2.16-2.26-.72.77-1.63,1.43-2.14,2.31-5.4,9.36-10.58,18.85-16.12,28.13-4.85,8.11-10.19,15.91-15.09,23.99-1.45,2.39-3.01,2.97-5.93,1.97,4.05-6.43,8.15-12.63,11.94-19.01,7.43-12.49,14.62-25.12,22.13-37.56,1-1.66,3.24-3.33,5.05-3.51,1.63-.16,4.17,1.3,5.08,2.79,10.86,17.82,21.49,35.78,32.17,53.7.68,1.14,1.31,2.32,1.96,3.48-.23.35-.46.7-.69,1.05Z"/>
      <path class="cls-1" d="M48.76,69.4c2.69.93,4.67,1.62,6.65,2.3-1.1,1.84-2.01,3.83-3.34,5.48-3.34,4.17-6.96,8.11-10.28,12.29-2.04,2.57-3.54,2.39-5.53-.08-3.81-4.74-7.88-9.28-11.73-13.99-.86-1.06-1.25-2.5-1.85-3.77,1.32-.44,2.63-.93,3.98-1.29.69-.18,1.45-.13,2.6-.21,0-8.01,0-15.92,0-23.84q0-5.94,5.89-5.93c3.11,0,6.23.18,9.32-.05,3.22-.23,4.44.88,4.35,4.2-.2,7.07-.06,14.16-.06,21.24,0,1.35,0,2.7,0,3.65ZM48.29,75.46c-.49-.13-.97-.26-1.46-.38-.64-1.68-1.78-3.33-1.85-5.03-.23-5.84-.09-11.69-.09-17.54,0-2.67,0-5.35,0-8.08h-11.66c0,8.52-.11,16.83.06,25.13.06,3-.51,5.04-4.39,5.02,3.57,4.19,6.77,7.94,10.21,11.97,3.22-3.89,6.2-7.49,9.18-11.09Z"/>
      <path class="cls-1" d="M133.48,70.16c0-8.46,0-16.63,0-24.8q0-4.98,4.92-4.99c3.35,0,6.72.19,10.06-.06,3.38-.25,4.67.88,4.56,4.4-.22,7.19-.06,14.4-.06,21.6,0,1.21,0,2.43,0,3.33.47.38.55.5.65.53,1.96.46,3.92.92,5.89,1.37-1.12,1.94-2.02,4.05-3.4,5.78-3.4,4.27-7.08,8.32-10.53,12.55-1.71,2.1-3.09,2-4.76-.02-4.03-4.88-8.21-9.64-12.2-14.55-.84-1.03-1.11-2.53-1.65-3.81,1.35-.38,2.68-.81,4.04-1.14.59-.14,1.22-.1,2.5-.18ZM153.66,74.17c-4.66.74-4.79-1.67-4.7-4.45.12-3.59.03-7.2.03-10.8,0-4.8,0-9.59,0-14.41h-11.65c0,8.6.12,16.91-.09,25.21-.05,1.89-1.28,3.75-1.97,5.62-.47.02-.93.03-1.4.05,3.03,3.64,6.06,7.28,9.29,11.15,3.48-4.1,6.59-7.76,10.5-12.37Z"/>
      <path class="cls-1" d="M88.77,139.85c-11.44-.35-22.37-5.82-30.33-16.84-.73-1.01-.45-2.74-.64-4.14,1.26.65,2.95.97,3.72,1.99,15.49,20.51,44.31,20.23,59.56-.59.75-1.02,2.43-1.37,3.68-2.03-.18,1.43.1,3.15-.61,4.23-7.14,10.89-19.97,17.52-35.38,17.37Z"/>
      <path class="cls-2" d="M104.57,104.9c-4.62,5.46-8.84,10.45-13.47,15.92-4.49-5.3-8.81-10.41-13.31-15.73q5.72-.99,5.72-6.85c0-9.92,0-19.84,0-30.05h14.99c.05,1.18.16,2.49.17,3.79.01,8.93,0,17.87,0,26.8q0,5.5,5.9,6.11Z"/>
      <path class="cls-2" d="M48.29,75.46c-2.98,3.6-5.95,7.2-9.18,11.09-3.44-4.03-6.64-7.78-10.21-11.97,3.88.02,4.45-2.02,4.39-5.02-.17-8.3-.06-16.61-.06-25.13h11.66c0,2.73,0,5.4,0,8.08,0,5.85-.14,11.7.09,17.54.07,1.7,1.2,3.36,1.85,5.03.49.13.97.26,1.46.38Z"/>
      <path class="cls-2" d="M153.66,74.17c-3.91,4.6-7.02,8.27-10.5,12.37-3.23-3.87-6.26-7.51-9.29-11.15.47-.02.93-.03,1.4-.05.69-1.87,1.92-3.73,1.97-5.62.22-8.3.09-16.61.09-25.21h11.65c0,4.82,0,9.62,0,14.41,0,3.6.09,7.2-.03,10.8-.09,2.79.04,5.19,4.7,4.45Z"/>
    </g>
  </g>
</svg>