<?xml version="1.0" encoding="UTF-8"?>
<svg id="Layer_2" data-name="Layer 2" xmlns="http://www.w3.org/2000/svg" viewBox="0 0 497.03 494.44">
  <defs>
    <style>
      .cls-1 {
        fill: #000;
        stroke-width: 0px;
      }
    </style>
  </defs>
  <g id="Layer_1-2" data-name="Layer 1">
    <g>
      <path class="cls-1" d="M0,478.91h15.73v15.53H0v-15.53Z"/>
      <path class="cls-1" d="M465.03,479v15.1H32.38v-15.52c4.73,0,9.5-.14,14.26.05,2.79.11,4.29-.75,5.52-3.42,15.6-33.84,42.05-53.59,78.71-59.65,3.83-.63,6.4-2.49,9.02-4.96,35.38-33.23,77.33-48.04,125.63-43.16,34.52,3.49,64.62,17.66,89.95,41.46,4.15,3.9,8.43,6.06,14.15,7.15,34.75,6.65,59.92,26.09,75.05,58.13,1.54,3.26,3.12,4.74,6.78,4.46,4.02-.31,8.09-.04,12.13,0,.31,0,.63.14,1.43.34ZM339.13,415.45c-33.28-26.36-69.73-37.13-110.63-31.47-26.04,3.61-49.14,14.15-69.96,31.36,2.38.59,3.78.99,5.2,1.28,30.11,6.17,52.55,22.99,68.27,49.12,2.63,12.62,11.41,14.15,22.33,13.03,3.84-.39,5.59-1.53,7.08-4.89,7.61-17.28,19.47-31.05,35.04-41.76,12.6-8.67,26.53-13.88,42.67-16.67ZM69.09,478.22h150.77c-11.68-26.83-41.95-48.15-76.5-47.7-36.38.47-65.08,24.55-74.27,47.7ZM428.56,478.32c-13.16-29.19-47.75-52.37-87.42-46.98-30.67,4.17-56.86,27.33-63.28,46.98h150.7Z"/>
      <path class="cls-1" d="M208.63,198.67c20.49,12.32,41.63,35.06,47.58,74.71,8.34-4.84,15.96-10.01,21.32-17.9,5.74-8.47,1.96-18.27,3.6-27.95,10.79,9.85,20.65,19.87,27.63,32.41,6.28,11.28,10.6,23.22,11.74,36.13,2.04,23.1-8.1,40.58-25.68,54.46-3.13,2.47-6.62,4.48-10.41,7.02-2.51-4.98-4.73-9.39-7.14-14.16,14.42-9.54,26.11-20.98,27.47-39.39.88-11.9-5.18-30.39-13.06-40.43-12.38,17.72-30.64,26.66-50.94,34.35.64-23.37-2.45-45.25-17.33-64.56-.49,1.65-.75,2.83-1.18,3.93-3.24,8.4-5.54,17.34-9.94,25.08-16.66,29.37-14.82,52.9,7.14,79.06.83.98,1.64,1.98,2.52,3.03-3.72,3.69-7.34,7.29-11.23,11.15-10.91-11.63-18.56-25.07-23.09-40.33-5.91-19.92-3.58-38.67,8.08-56.04,9.64-14.36,13.22-30.34,12.94-47.39-.07-4.18-.01-8.36-.01-13.18Z"/>
      <path class="cls-1" d="M88.37,259.58c-1.39,9.56-2.37,17.7-3.79,25.76-3.16,17.89-10.52,33.8-22.98,47.22-4.73,5.09-9.52,10.16-13.85,15.59-15.45,19.35-19.29,41.26-12.37,64.68,2.13,7.21,7.31,13.52,11.51,21-3.17,2.72-7.02,6.02-11.23,9.64-9.68-11.01-17.44-22.96-18.85-37.49-1.97-20.24.11-40.19,11.3-57.88,4.62-7.31,10.27-14.19,16.45-20.25,19-18.63,25.92-41.9,27.13-67.49.41-8.7.07-17.44.07-27.17,3.63,1.71,6.51,2.92,9.26,4.38,23.72,12.59,44.93,28.16,59.71,51.13,7.21,11.2,11.4,23.43,11.53,37.62-4.75,0-9.38.12-13.99-.12-.75-.04-1.98-1.6-2.05-2.53-1.47-20.01-13.03-34.35-26.87-47.21-6.34-5.9-13.51-10.91-20.98-16.87Z"/>
      <path class="cls-1" d="M433.08,422.28c5.08-2.96,9.85-5.36,14.22-8.35,15.33-10.45,21.4-26.59,16.21-44.45-2.14-7.37-5.13-14.63-8.73-21.42-9.28-17.48-17.72-35.19-20.14-55.13-.44-3.64-.84-7.28-1.33-11.58-29.73,13.73-47.52,34.97-48.36,68.51h-15.4c-2.36-47.51,38.48-82.22,79.88-89.48,0,5.24-.04,10.34,0,15.43.18,19.95,5.67,38.37,14.89,56.05,5.93,11.38,12.09,23.12,15.06,35.45,6.84,28.4-5.76,52.4-32.27,65.51-2.45,1.21-4.96,2.32-8.11,3.79-2-4.84-3.93-9.52-5.92-14.33Z"/>
      <path class="cls-1" d="M319.14,8.39c.79,10.73,1.16,20.9,2.37,30.97,1.36,11.33,6.17,21.32,13.78,29.89,3.54,3.99,7.06,8.01,10.72,11.89,12.8,13.58,17.32,29.72,13.98,47.82-1.96,10.57-5.16,20.91-7.95,31.92-5.61-2.04-10.36-3.77-15.35-5.58,1.99-6.98,4.16-13.56,5.69-20.28,1.22-5.33,2.05-10.81,2.36-16.26.65-11.39-4.31-20.58-12.06-28.58-9.59-9.9-18.89-20.08-23.24-33.57-2.02-6.27-3.43-12.74-5.15-19.26.07,0-.35-.17-.52-.04-17.34,13.13-31.56,28.66-37.9,50.07-1.04,3.52-1.07,7.34-1.96,10.92-.33,1.32-1.67,3.21-2.76,3.37-3.17.46-6.45.2-9.68.17-1.09-.01-2.18-.18-3.59-.31.02-12.96,3.35-24.79,9.4-35.81,14.19-25.84,36.16-43.34,61.89-57.34Z"/>
      <path class="cls-1" d="M112.95,96.87c26.41,11.82,57.29,42.96,54.84,68.83h-15.18c-1.58-17.3-11.93-29.29-25.09-40.44-.62,3-1.08,5.44-1.62,7.86-2.45,10.88-7.62,20.46-13.74,29.69-4.62,6.96-9.63,13.94-12.62,21.62-4.13,10.6-1.59,21.65,1.21,32.36.89,3.42,1.93,6.8,3.04,10.69-4.93,1.68-9.77,3.33-14.87,5.07-8.82-25.65-12.47-50.59,6.26-73.53,12.92-15.83,17.99-34,17.23-54.11-.09-2.42.04-4.84.11-7.26,0-.26.28-.52.44-.78Z"/>
      <path class="cls-1" d="M408.16,265.68c-4.82-2.41-9.25-4.62-13.99-6.98,2.16-5.41,4.2-10.61,6.29-15.78,4.5-11.17,2.56-20.66-6.66-28.83-11.76-10.41-20.57-22.75-23.27-38.69-.07-.4-.52-.73-.96-1.32-14.22,12.73-23.74,27.73-24.7,47.54h-15.31c-3.11-26.02,22.37-61.85,55.79-77.45,0,6.89-.15,13.22.03,19.55.4,13.7,5.64,25.12,15.36,35,6.02,6.12,11.98,12.94,15.69,20.56,5.55,11.39,1.28,23.1-2.82,34.26-1.48,4.04-3.51,7.87-5.45,12.14Z"/>
      <path class="cls-1" d="M192.27,0c30.42,14.94,57.59,44.33,55.83,69.78-4.26,0-8.6.18-12.9-.13-1.05-.08-2.72-1.71-2.85-2.78-2-16.14-12.27-26.84-23.98-37.3-1.23,6.25-1.59,12.31-3.7,17.68-2.67,6.8-5.45,14.42-10.51,19.24-13.16,12.54-17.63,27.69-17.47,45,.02,1.91,0,3.82,0,6.08h-16.3c.59-19.69.56-39.72,16.01-54.55,11.78-11.3,15.43-24.92,15.83-40.19.2-7.4.03-14.81.03-22.83Z"/>
      <path class="cls-1" d="M120.53,182.13h15.62c.82,16.19,13.28,24.96,23.01,35.49,7.32,7.92,13.88,16.21,16.13,27.07.59,2.82.79,5.72,1.22,8.99h-16.01c-.4-11.31-7.54-18.94-14.62-26.78-7.01-7.75-13.94-15.66-20.02-24.13-4.15-5.77-5.57-12.92-5.33-20.64Z"/>
      <path class="cls-1" d="M64.31,382.34c.06-12.16,5.82-21.25,12.25-30.03,4.48-6.12,9.49-11.89,13.58-18.25,2.99-4.65,4.86-10.02,7.49-15.64h14.28c.47,7.91-2.07,14.8-6.17,21-4.71,7.12-10.02,13.85-15.07,20.75-4.48,6.12-9.1,12.15-10.31,20-.13.83-1.61,2.03-2.52,2.07-4.33.22-8.69.1-13.54.1Z"/>
      <path class="cls-1" d="M265.15,126.03h15.58c-.36,15.35,8.47,26.86,16.12,38.95,4.67,7.38,7.92,15.37,7.8,24.68h-15.89c-.45-10.93-7.32-18.75-12.65-27.3-6.4-10.28-11.09-21.11-11.17-33.48,0-.79.11-1.59.21-2.85Z"/>
      <path class="cls-1" d="M423.72,334.56c3.78,8.7,7.11,16.67,10.69,24.53,3.28,7.2,6.42,14.38,6.56,23.22-4.86,0-9.46.1-14.04-.1-.74-.03-1.73-1.22-2.09-2.09-3.05-7.41-6.1-14.82-8.91-22.32-2.8-7.45-5.32-15.01-8.21-23.25h16Z"/>
      <path class="cls-1" d="M481.5,494.17v-15.22h15.54v15.22h-15.54Z"/>
      <path class="cls-1" d="M224.24,414.17h-15.35v-15.44h15.35v15.44Z"/>
      <path class="cls-1" d="M272.99,414.07v-15.38h15.26v15.38h-15.26Z"/>
      <path class="cls-1" d="M256.32,414.82v15.34h-15.33v-15.34h15.33Z"/>
      <path class="cls-1" d="M240.92,462.06v-15.19h15.3v15.19h-15.3Z"/>
      <path class="cls-1" d="M160.62,462.22v-15.42h15.51v15.42h-15.51Z"/>
      <path class="cls-1" d="M128.01,462.29h-15.25v-15.33h15.25v15.33Z"/>
      <path class="cls-1" d="M320.94,462.1v-15.16h15.68v15.16h-15.68Z"/>
      <path class="cls-1" d="M384.55,462.21h-15.29v-15.36h15.29v15.36Z"/>
    </g>
  </g>
</svg>