<?xml version="1.0" encoding="UTF-8"?>
<svg id="Layer_2" data-name="Layer 2" xmlns="http://www.w3.org/2000/svg" viewBox="0 0 408.78 345.28">
  <defs>
    <style>
      .cls-1 {
        fill: #000;
        stroke-width: 0px;
      }
    </style>
  </defs>
  <g id="Layer_1-2" data-name="Layer 1">
    <g>
      <path class="cls-1" d="M408.78,147.06c-2.8,4.75-5.19,9.81-8.48,14.2-10.6,14.16-21.5,28.1-32.37,42.05-1.38,1.77-1.82,3.19-.87,5.37,2.97,6.77,2.81,13.75.44,20.64-7.08,20.6-17.79,39.14-31.97,55.68-2.88,3.35-6.26,3.98-9.05,1.8-2.96-2.31-3.17-5.76-.12-9.47,8.9-10.83,16.83-22.28,22.72-35.03,2.62-5.66,5.03-11.43,7.14-17.29.9-2.48.79-5.33,1.2-8.44-13.04,5.62-17.31,4.47-29.76-7.84-1.29,2.78-2.65,5.27-3.64,7.9-7.58,20.18-19.21,37.64-35.57,51.7-28.64,24.62-61.87,34.86-99.43,30.68-6.17-.69-12.27-2.07-18.77-2.61,4.81,2.78,9.47,5.88,14.47,8.27,35.22,16.86,70.94,17.62,106.88,2.53,4.43-1.86,8.11-5.49,12.15-8.28,1.31-.9,2.57-2.01,4.04-2.51,2.78-.94,5.36-.3,6.88,2.41,1.77,3.13,1.08,6.07-1.76,8.11-7.02,5.03-13.9,10.33-21.34,14.68-30.7,17.94-63.96,25.7-99.41,23.23-35.91-2.51-68.01-15.21-95.99-37.86-27.18-22-46.1-49.77-56.57-83.17-.93-2.95-2.05-4.37-5.45-4.09-4.63.37-9.31.06-13.96.1-7.99.06-14.31-3.01-18.01-10.24-3.79-7.41-2.41-14.44,2.55-20.88,11.44-14.86,22.84-29.75,34.43-44.5,2.49-3.17,3.57-5.7,1.79-9.88-2.45-5.76-1.92-12.07.17-17.99,11.75-33.24,31.55-60.64,59.79-81.86C125.01,16.33,152.04,5.17,181.93,1.47c44.01-5.43,84.59,4.09,121.04,29.61,32.24,22.57,54.27,52.79,66.15,90.32,1.04,3.27,2.55,4.31,5.85,4.1,4.51-.29,9.04-.11,13.57-.06,10.18.1,15.99,4.28,19.46,13.9.17.48.51.89.77,1.34v6.39ZM98.79,219.74c2.63,4.82,4.66,8.83,6.94,12.69,25.56,43.25,79.77,65.34,127.87,51.85,37.97-10.65,64.28-34.44,78.94-71.14,1.7-4.26,4.48-8.08,6.48-12.23.53-1.1.57-3-.04-3.99-1.67-2.7-3.81-5.11-5.76-7.63-8.37-10.84-16.74-21.69-25.1-32.53-4.95-6.42-6.48-13.46-2.8-20.88,3.59-7.24,9.87-10.47,17.89-10.43,1.94.01,3.88,0,6.25,0-.59-1.47-.91-2.46-1.36-3.38-21.78-45.41-72.76-72.26-122.23-63.34-42.92,7.74-72.81,32.3-89.43,72.82-1.75,4.26-3.99,8.37-6.52,12.21-1.37,2.08-1.42,3.25.08,5.13,4.82,6.02,9.5,12.16,14.17,18.29,6.13,8.03,12.76,15.75,18.18,24.23,7.93,12.42-.3,27.42-15.02,28.32-2.5.15-5.03.02-8.54.02ZM174.53,15.32c1.83.21,3.66.46,5.5.63,35.41,3.32,65.13,18.16,89.47,44,3.44,3.65,6.92,7.38,10.89,10.41,19.72,15.06,34.23,33.97,43.11,57.16,2.36,6.17-.15,9.77-6.86,9.86-4.52.06-9.04.06-13.57,0-3.02-.04-5.52.77-6.97,3.63-1.52,3-.66,5.62,1.28,8.12,14.15,18.3,28.25,36.64,42.44,54.91,3.9,5.02,8.38,5.13,12.23.19,14.38-18.46,28.71-36.96,42.8-55.64,1.33-1.76,1.58-5.02,1.06-7.3-.68-3-3.59-3.94-6.66-3.91-6.52.05-13.03.01-19.55.01-7.55,0-8.4-.57-10.54-8.01-7.33-25.5-19.94-48.04-38.27-67.21-26.28-27.47-58.26-44-96.07-48.91-16.85-2.19-33.64-1.73-50.29,2.05ZM234.39,329.92c-1.95-.23-3.9-.49-5.86-.68-36.02-3.4-66.03-18.77-90.51-45.28-3.22-3.49-6.69-6.82-10.44-9.72-19.4-15.01-33.65-33.81-42.41-56.73-2.26-5.93.28-9.57,6.73-9.68,4.52-.08,9.04-.07,13.57,0,3.16.05,5.8-.73,7.27-3.8,1.37-2.87.61-5.4-1.24-7.78-14.23-18.41-28.4-36.86-42.69-55.23-3.76-4.83-8.27-4.95-11.97-.21-14.47,18.56-28.87,37.17-43.03,55.96-1.3,1.73-1.72,5.36-.78,7.21.94,1.86,4.01,3.45,6.28,3.65,5.67.51,11.42.17,17.14.17,10.77,0,10.7.02,13.92,10.48,11.91,38.64,34.94,68.85,69.01,90.58,21.81,13.91,45.77,21.73,71.47,23.87,14.57,1.21,29.14.76,43.54-2.82ZM81.42,137.07c11.35-32.99,30.58-58.91,60.84-75.65,30.38-16.8,62.48-20.22,96.12-12.02-.96-.97-1.97-1.75-3.04-2.42-27.42-17.16-57.11-22.92-88.98-17.72-10.94,1.78-22.12,3.98-31.3,10.02-29.94,19.69-50.62,46.97-62.5,80.8-.89,2.54-.77,5.44-1.18,8.74,12.33-5.97,18.45-4.32,30.05,8.25Z"/>
      <path class="cls-1" d="M265.98,116.45c-20.92-5.07-40.97-6.96-61.24-1.68-1.93.5-4.6.67-6.09-.3-1.56-1.01-2.8-3.52-2.96-5.48-.27-3.29,2.4-4.77,5.27-5.57,10.46-2.91,21.18-4.45,31.96-3.61,11.09.87,22.18,2.39,33.12,4.43,11.48,2.14,15.2,11.3,8.44,20.8-8.34,11.72-11.49,25.28-15.09,38.74-4.76,17.76-13.61,32.99-28.65,43.86-15.92,11.51-33.49,14.23-52.19,7.54-2.07-.74-3.49-.8-4.58,1.32-3.15,6.11-6.62,12.07-9.46,18.32-5.02,11.04-18.54,14.31-27.61,6.41-5.49-4.78-7.1-11.99-4.59-19.69,3.47-10.63,9.03-20.05,15.92-28.8,1.01-1.29,1.75-3.81,1.19-5.16-9.93-23.71-1.84-50.47,18.6-66.92,1.14-.92,2.24-1.89,3.44-2.72,3.1-2.13,6.6-1.83,8.6.67,2.03,2.53,1.62,6.04-1.1,8.55-1.17,1.08-2.49,1.99-3.71,3.03-14.83,12.65-21.46,28.43-16.43,47.64,5.79,22.12,28.25,33.35,50.29,27.15,17.42-4.9,27.78-17.45,34.78-33.26,1.98-4.47,3.35-9.24,4.62-13.98,3.87-14.37,7.67-28.74,17.44-41.28ZM157.44,200.72c-6.4,7.55-11.04,15.95-13.99,25.29-1.05,3.34.15,6.23,3.06,7.15,3.32,1.05,5.6-.26,7.08-3.39,3.5-7.38,7.1-14.71,10.83-22.42-1.85-1.75-4.34-4.11-7-6.63Z"/>
      <path class="cls-1" d="M180.56,185.5c-1.93-1.68-4.26-2.75-4.75-4.37-.59-1.97-.34-4.92.82-6.54,3.47-4.85,7.35-9.45,11.44-13.81,10.86-11.58,22.65-22.11,36.26-30.43,2.14-1.31,4.44-2.43,6.77-3.35,3.31-1.3,6.3-.07,7.69,2.89,1.4,2.98.49,6.01-2.8,7.72-16.79,8.76-30.31,21.45-42.84,35.34-2.4,2.66-4.4,5.69-6.86,8.3-1.46,1.55-3.46,2.6-5.74,4.25Z"/>
    </g>
  </g>
</svg>