<?xml version="1.0" encoding="utf-8"?>
<!-- Generator: Adobe Illustrator 28.3.0, SVG Export Plug-In . SVG Version: 6.00 Build 0)  -->
<svg version="1.1" id="Layer_1" xmlns="http://www.w3.org/2000/svg" xmlns:xlink="http://www.w3.org/1999/xlink" x="0px" y="0px"
	 viewBox="0 0 317 224" style="enable-background:new 0 0 317 224;" xml:space="preserve">
<style type="text/css">
	.st0{fill:none;stroke:#000000;stroke-miterlimit:10;}
</style>
<g>
	<path class="st0" d="M167.3,25c1.3,3.4,2.4,6.4,3.7,9.8c-6.1,3.9-12.2,7.8-18.2,11.7c-5.6,3.5-5.6,3.5-3.4,9.5
		c4.9,13,9.9,26.1,14.8,39.1c2.6,6.8,1.1,10-5.7,12.5c-23.2,8.4-46.3,16.9-69.5,25.3c-0.9,0.3-1.8,0.8-2.7,1.5c28.1,0,56.1,0,84.7,0
		c0-22,0-44.1,0-66.5c1.6,0,2.6,0,3.7,0c21.6,0,43.2,0.1,64.8,0c9.4-0.1,16.3,3.7,21.3,11.6c10.9,17.1,21.9,34.1,32.9,51.1
		c3.9,6.1,6,12.6,5.8,19.9c-0.1,5.2,0,10.4,0,15.5c-11,0-21.7-0.1-32.4,0c-6.3,0-10.3,4.1-10.4,10.4c-0.1,5.2-0.1,10.4,0,15.7
		c0,1.9-0.6,2.5-2.4,2.4c-3.3-0.1-6.6,0-10.1,0c-0.3-9.9-3.6-18-10.9-24.2c-5.4-4.6-11.7-7-18.8-7.1c-8.7-0.2-16.1,2.8-22.3,9
		c-6,6-8.8,13.5-8.8,22.1c-14.2,0-28,0-42.1,0c-1-5.8-3.2-11.2-8.6-14c-3.2-1.7-7.1-3.1-10.7-3.2c-9.6-0.2-15.5,5.6-18.8,17.4
		c-1,0-2.1-0.1-3.1,0c-1.8,0.1-2.6-0.4-3-2.3c-2.1-9.2-9.9-15.4-18.8-15.2c-9.2,0.2-16.6,6.3-18.6,15.4c-0.3,1.6-1,2.3-2.6,2.1
		c-0.2,0-0.4,0-0.6,0c-9.5,0.1-10-0.3-10-9.9c0-14.3-0.1-28.5,0-42.8c0-4.2-0.6-8.1-2.1-12c-6.1-16-12-32.1-17.9-48.2
		c-0.3-0.9-0.8-1.7-1.7-2.5c0,1.2,0,2.5,0,3.7c0.4,21.8,0.7,43.6,1.3,65.3c0.1,3.2-0.7,5-3.9,5.7c-1.4,0.3-2.8,1-4.5,1.6
		c-0.1-1.1-0.3-2-0.3-2.8c-0.7-23-1.3-45.9-2-68.9c-0.1-2.1,0.5-3.1,2.6-3.9C58.4,65,99.1,50,139.8,35
		C148.8,31.7,157.9,28.4,167.3,25z M273.2,124.2c-0.8-1.4-1.2-2.3-1.7-3.1c-6.1-10.4-12.3-20.7-18.3-31.1c-3-5.2-7.4-7.7-13.3-7.7
		c-6.3,0-12.6,0-18.9,0c-0.8,0-1.5,0.2-2.3,0.3c0,14,0,27.8,0,41.6C236.9,124.2,254.8,124.2,273.2,124.2z M206,124.4
		c0.2-0.8,0.3-1.2,0.3-1.5c0-12.7,0-25.5,0.1-38.2c0-1.9-0.9-2.3-2.6-2.3c-5.3,0.1-10.6,0.1-16,0c-2.3-0.1-2.9,0.9-2.9,3
		c0.1,5.3,0,10.6,0,16c0,6.8,0,13.6,0,20.5c0,1.3-0.3,2.7,1.8,2.7C193.2,124.3,199.5,124.4,206,124.4z M110.3,55.7
		c2.1,5.5,3.9,10.6,5.8,15.7c3.1,8.3,6,16.8,9.4,25c2.7,6.5,9.7,9.1,16,6.4c6.2-2.6,8.7-8.9,6.2-15.5c-4.6-12.5-9.3-25-13.9-37.5
		c-0.3-0.8-0.7-1.6-1.1-2.5C125.2,50.2,117.9,52.9,110.3,55.7z M39.9,82.2c2.4,6.4,4.6,12.4,6.9,18.4c2.7,7.2,5.3,14.5,8.1,21.7
		c2.6,6.6,9.4,9.6,15.7,7.2c6.6-2.5,9.4-8.8,6.9-15.7c-2.8-7.6-5.6-15.2-8.4-22.8c-2.1-5.7-4.3-11.4-6.5-17.2
		C54.9,76.6,47.6,79.3,39.9,82.2z M75,68.9c2,5.4,3.8,10.3,5.7,15.3c3,8.1,5.9,16.2,9,24.2c2.4,6.3,8.2,9.7,13.9,8.4
		c7.9-1.8,11.8-8.6,9-16.2c-4.4-12.1-9-24.2-13.5-36.3c-0.4-1.2-0.9-2.4-1.4-3.8C90,63.4,82.7,66.1,75,68.9z"/>
	<path class="st0" d="M43.9,37.8c1.8-20.2,25.7-26.1,37.8-13.1c0.6-0.6,1.2-1.3,1.8-1.9c8.1-8.6,21.8-9.1,30.3-0.9
		c1.5,1.5,2.4,1.6,4.2,0.5c6.8-4,14.9-1.1,18.8,6.7c-5.8,2.2-11.5,4.4-17.3,6.6c-31.2,11.7-62.3,23.3-93.5,35
		c-2.7,1-3.8,0.4-4.6-2.1c-6.5-19.5,8.1-32.3,21.7-30.7C43.3,38,43.6,37.8,43.9,37.8z"/>
	<path class="st0" d="M191.5,193c-0.1-12.7,9.9-22.7,22.7-22.7c12.3,0,22.5,10.4,22.4,22.8c-0.1,12.3-10.1,22.2-22.5,22.3
		C201.4,215.4,191.5,205.6,191.5,193z M213.9,180.7c-6.6,0-12.1,5.4-12.2,12c0,6.8,5.7,12.5,12.4,12.4c6.6-0.1,11.9-5.6,11.9-12.2
		C226.2,186.1,220.7,180.7,213.9,180.7z"/>
	<path class="st0" d="M281.3,172.9c3.8,0,7.6-0.1,11.4,0c4.4,0.1,6.4,2.2,6.5,6.5c0.1,2.3,0,4.6,0,6.9c-0.1,4-2.2,6.3-6,6.4
		c-7.9,0.1-15.8,0.1-23.8,0c-3.6-0.1-5.6-2.1-5.8-5.6c-0.2-2.8-0.2-5.6,0-8.4c0.2-3.8,2.2-5.6,6-5.8
		C273.5,172.8,277.4,172.9,281.3,172.9C281.3,172.9,281.3,172.9,281.3,172.9z"/>
	<path class="st0" d="M108.6,196.8c0-7.6,6.5-14,14.1-13.9c7.5,0.1,13.8,6.4,13.9,13.9c0,7.6-6.4,14.1-14,14.1
		C115,210.9,108.5,204.4,108.6,196.8z M129,196.8c-0.1-3.6-3-6.4-6.7-6.2c-3.5,0.1-6.2,3-6.1,6.5c0.1,3.4,3,6.3,6.4,6.3
		C126.1,203.3,129,200.3,129,196.8z"/>
	<path class="st0" d="M92.7,197.1c-0.1,7.6-6.2,13.7-13.9,13.8c-7.7,0.1-13.9-6.3-13.9-14c0-7.8,6.3-14,14-13.9
		C86.8,183.1,92.8,189.3,92.7,197.1z M78.9,190.5c-3.6,0-6.6,2.9-6.5,6.5c0.1,3.4,3,6.3,6.4,6.4c3.5,0,6.5-3,6.5-6.5
		C85.2,193.3,82.4,190.5,78.9,190.5z"/>
	<path class="st0" d="M273.2,124.2c-18.5,0-36.4,0-54.5,0c0-13.9,0-27.6,0-41.6c0.7-0.1,1.5-0.3,2.3-0.3c6.3,0,12.6,0,18.9,0
		c5.9,0,10.3,2.5,13.3,7.7c6,10.4,12.2,20.7,18.3,31.1C272,121.9,272.5,122.8,273.2,124.2z"/>
	<path class="st0" d="M206,124.4c-6.5,0-12.8,0-19.2,0c-2.1,0-1.8-1.4-1.8-2.7c0-6.8,0-13.6,0-20.5c0-5.3,0.1-10.6,0-16
		c0-2.1,0.5-3.1,2.9-3c5.3,0.1,10.6,0.1,16,0c1.7,0,2.6,0.4,2.6,2.3c-0.1,12.7-0.1,25.5-0.1,38.2C206.3,123.2,206.2,123.6,206,124.4
		z"/>
	<path class="st0" d="M110.3,55.7c7.6-2.8,14.9-5.6,22.5-8.4c0.4,0.9,0.8,1.7,1.1,2.5c4.6,12.5,9.3,25,13.9,37.5
		c2.5,6.6-0.1,12.8-6.2,15.5c-6.3,2.7-13.3,0.2-16-6.4c-3.4-8.2-6.3-16.7-9.4-25C114.3,66.3,112.4,61.3,110.3,55.7z M118.1,59
		c4.3,11.5,8.4,22.6,12.6,33.7c1.5,4,4.8,5.7,8.2,4.5c3.3-1.2,4.7-4.8,3.2-8.8c-2.7-7.3-5.4-14.6-8.1-21.9
		c-1.4-3.8-2.9-7.6-4.4-11.6C125.7,56.3,122.1,57.6,118.1,59z"/>
	<path class="st0" d="M39.9,82.2c7.7-2.9,15-5.6,22.6-8.4c2.2,5.8,4.3,11.5,6.5,17.2c2.8,7.6,5.7,15.2,8.4,22.8
		c2.5,6.9-0.3,13.2-6.9,15.7c-6.3,2.4-13.1-0.6-15.7-7.2c-2.8-7.2-5.4-14.5-8.1-21.7C44.5,94.6,42.3,88.6,39.9,82.2z M47.7,85.5
		c4.5,12,8.8,23.8,13.3,35.6c1,2.6,4.6,3.9,7.2,3.1c2.5-0.7,4.4-3.4,4.2-6.3c-0.1-1.4-0.6-2.7-1-4c-2.6-7.1-5.3-14.3-7.9-21.4
		c-1.3-3.6-2.7-7.3-4.2-11.2C55.3,82.7,51.7,84.1,47.7,85.5z"/>
	<path class="st0" d="M75,68.9c7.7-2.9,15-5.6,22.6-8.4c0.5,1.4,1,2.6,1.4,3.8c4.5,12.1,9.1,24.2,13.5,36.3c2.8,7.6-1.1,14.4-9,16.2
		c-5.7,1.3-11.5-2.1-13.9-8.4c-3.1-8-6-16.1-9-24.2C78.8,79.3,77,74.3,75,68.9z M82.8,72.3c4.5,12.1,8.8,23.8,13.3,35.5
		c0.4,1.1,1.8,2.1,3,2.7c2.4,1.2,4.8,0.8,6.6-1.1c2.2-2.2,2.1-4.8,1.1-7.6c-3.7-10-7.4-20.1-11.1-30.1c-0.4-1.2-0.9-2.3-1.4-3.6
		C90.3,69.5,86.8,70.8,82.8,72.3z"/>
	<path class="st0" d="M213.9,180.7c6.8,0,12.2,5.4,12.2,12.2c0,6.6-5.4,12.1-11.9,12.2c-6.7,0.1-12.5-5.7-12.4-12.4
		C201.8,186.2,207.3,180.8,213.9,180.7z"/>
	<path class="st0" d="M129,196.8c0.1,3.6-2.9,6.6-6.4,6.6c-3.4,0-6.3-2.9-6.4-6.3c-0.1-3.5,2.7-6.4,6.1-6.5
		C126,190.4,128.9,193.1,129,196.8z"/>
	<path class="st0" d="M78.9,190.5c3.5,0,6.3,2.8,6.3,6.3c0,3.6-2.9,6.6-6.5,6.5c-3.4,0-6.3-3-6.4-6.4
		C72.4,193.4,75.3,190.5,78.9,190.5z"/>
	<path class="st0" d="M118.1,59c3.9-1.4,7.6-2.7,11.5-4.2c1.5,4,3,7.8,4.4,11.6c2.7,7.3,5.5,14.6,8.1,21.9c1.5,4,0.1,7.5-3.2,8.8
		c-3.4,1.3-6.7-0.5-8.2-4.5C126.6,81.7,122.4,70.5,118.1,59z"/>
	<path class="st0" d="M47.7,85.5c3.9-1.4,7.6-2.8,11.5-4.2c1.5,3.9,2.8,7.5,4.2,11.2c2.6,7.1,5.3,14.3,7.9,21.4c0.5,1.3,0.9,2.7,1,4
		c0.2,2.9-1.6,5.5-4.2,6.3c-2.6,0.8-6.2-0.5-7.2-3.1C56.5,109.3,52.2,97.5,47.7,85.5z"/>
	<path class="st0" d="M82.8,72.3c4-1.5,7.6-2.8,11.4-4.2c0.5,1.3,1,2.5,1.4,3.6c3.7,10,7.4,20.1,11.1,30.1c1,2.7,1,5.4-1.1,7.6
		c-1.9,1.9-4.3,2.3-6.6,1.1c-1.2-0.6-2.6-1.6-3-2.7C91.6,96.1,87.3,84.4,82.8,72.3z"/>
</g>
</svg>
