<?xml version="1.0" encoding="UTF-8"?>
<svg id="Layer_2" data-name="Layer 2" xmlns="http://www.w3.org/2000/svg" viewBox="0 0 257.04 257.89">
  <defs>
    <style>
      .cls-1 {
        fill: #000;
        stroke-width: 0px;
      }
    </style>
  </defs>
  <g id="Layer_1-2" data-name="Layer 1">
    <g>
      <path class="cls-1" d="M0,121.43h102.79c-1.12,13.25-2.21,26.25-3.37,40.01h-30.85v24.02h59.65v8.13h-27.22v23.87h55.51v-15.08c2.81-.22,4.97-.38,7.83-.6.24,5.31.46,10.23.7,15.62h55.54v-23.32c-2.42-.22-4.62-.43-7.15-.66v-7.57h35.51v-23.85c-3.9-.29-7.5-.56-11.37-.85-.11-2.36-.21-4.38-.34-7.18,3.97-.24,7.71-.48,11.82-.73v-23.36c-2.31-.36-4.67-.73-7.36-1.14v-7.18h15.35v136.34H0V121.43ZM124.12,226.39h-55.42v23.27h55.42v-23.27ZM132.94,249.75h55.52v-23.46h-55.52v23.46ZM91.99,153.17v-23.42h-55.58v23.42h55.58ZM92.04,194.18h-55.51v23.25h55.51v-23.25ZM59.62,226.33H8.16v23.41h51.46v-23.41ZM197.51,249.62h51.51v-23.17h-51.51v23.17ZM8.06,185.3h51.4v-23.32H8.06v23.32ZM7.94,153.09h19.49v-23.4H7.94v23.4ZM27.34,217.52v-23.19H8.09v23.19h19.25ZM249.11,194.32h-19.5v23.04h19.5v-23.04Z"/>
      <path class="cls-1" d="M141.32,81.51c-1.26-3.1-2.88-5.57-3.15-8.18-.31-2.93-.13-6.36,1.15-8.92,2.27-4.53,1.14-10.98-3.7-12.64-6.38-2.19-7.66-6.53-6.82-12.39.42-2.95.96-5.91,1.02-8.88.13-6.42,2.2-11.24,9.37-12.12.68-6.23,1.32-12.1,2.01-18.38,2.8.37,5.01.66,7.73,1.03-.32,3.72-.66,7.1-.9,10.48-.29,4.02-1.36,8.28,4,10.25,1.05.39,1.87,2.02,2.34,3.26,2.29,6.04-2.13,23.64-8.17,29.07,2.52,1.48,4.49,3.4,6.73,3.79,5.16.89,7.47,4.3,8.7,8.65,1.49,5.29,4.37,6.63,9.97,6.49,31.59-.79,58.51,23.26,61.42,54.23,2.99,31.83-18.57,60.1-50.02,65.59-30.98,5.41-60.96-13.78-68.55-44.69-6.11-24.86,1.58-45.63,20.93-62.19.87-.74,1.82-1.39,2.74-2.07.9-.67,1.82-1.34,3.21-2.36ZM225.08,133.57c.17-28.74-23.01-52.36-51.62-52.6-28.96-.24-52.91,23.29-53.01,52.08-.1,28.65,23.24,52.34,51.79,52.56,29.15.23,52.67-22.94,52.84-52.05ZM138.59,27.23c-.65,5.51-1.26,10.6-1.93,16.26,3.18.16,5.54.27,8.23.4.66-5.7,1.25-10.77,1.89-16.28-3.31-.16-5.5-.26-8.19-.39ZM152.71,66.38c-2.57,1.13-4.73,2.08-7.28,3.2,1.24,2.99,2.22,5.37,3.37,8.13,2.92-1.15,5.09-2.01,7.52-2.96-1.31-3.04-2.36-5.49-3.6-8.37Z"/>
      <path class="cls-1" d="M74.31,94.23c-8.33-10.99-9.58-11.01-17.05.08-7.71-4.44-15.49-8.92-23.22-13.38,5.13-12.62,4.67-13.47-8.12-14.61v-26.38q13.34-4.09,7.79-15.2c7.76-4.48,15.57-8.98,23.31-13.45,8.19,10.69,8.62,10.69,17.36.09,7.62,4.38,15.3,8.79,22.91,13.16q-5.12,12.46,8.28,15.21v26.21c-13.77,2.39-13.92,2.65-8.08,14.84-7.57,4.39-15.21,8.82-23.2,13.44ZM77.14,22.29c-5.35,7.11-16.71,7.03-23.56.31-2.82,1.7-5.72,3.44-8.58,5.16,3.54,8.07-1.91,17.72-11.18,20.12v9.94c8.98,1.73,14.58,11.6,11.35,20.18,3.02,1.72,6.09,3.47,9.05,5.15,5.44-7.23,17.27-7.07,23.06-.05,2.98-1.78,6.02-3.6,8.99-5.38-3.55-8.02,2.11-17.65,11.3-20.14v-9.9c-9.09-1.8-14.67-11.57-11.48-20.09-2.86-1.69-5.77-3.41-8.96-5.29Z"/>
      <path class="cls-1" d="M189.4,61.22h-7.92c-.33-5.2-.66-10.35-1.02-16.08,2.53-.39,4.66-.72,7.95-1.24.33,5.89.64,11.2.98,17.32Z"/>
      <path class="cls-1" d="M221.96,78.54c-1.85-2.23-3.27-3.94-5.12-6.17,4.33-3.74,8.41-7.25,12.68-10.94,1.77,1.97,3.28,3.63,5.32,5.9-4.34,3.78-8.5,7.39-12.88,11.21Z"/>
      <path class="cls-1" d="M207.6,66.48c-2.65-1.01-4.7-1.8-7.51-2.88,2.11-5.01,4.07-9.68,6.2-14.73,2.51,1.01,4.55,1.82,7.35,2.95-2.05,4.98-3.97,9.63-6.05,14.66Z"/>
      <path class="cls-1" d="M54.01,49.24c2.5-.29,4.49-.52,6.85-.8.4-2.24.79-4.4,1.29-7.21,1.98-.18,4.13-.38,6.73-.63.47,2.65.88,5,1.35,7.69,2.25.31,4.46.61,7.08.96v6.92c-2.35.39-4.72.77-7.28,1.19-.29,2.43-.55,4.61-.84,7.01h-7.13c-.37-2.51-.69-4.7-1.04-7.07-2.37-.38-4.54-.73-7.01-1.13v-6.95Z"/>
    </g>
  </g>
</svg>