<?xml version="1.0" encoding="UTF-8"?>
<svg id="Layer_2" data-name="Layer 2" xmlns="http://www.w3.org/2000/svg" viewBox="0 0 132.77 132.77">
  <defs>
    <style>
      .cls-1 {
        fill: #000;
      }

      .cls-1, .cls-2 {
        stroke-width: 0px;
      }

      .cls-2 {
        fill: none;
      }
    </style>
  </defs>
  <g id="Layer_3" data-name="Layer 3">
    <rect class="cls-2" width="132.77" height="132.77"/>
  </g>
  <g id="Layer_2-2" data-name="Layer 2">
    <g>
      <path class="cls-2" d="M54.56,92.96c-.55-.85-1.03-1.89-1.78-2.68-1.25-1.32-1.33-2.61-.82-4.33,1.22-4.13,1.52-8.35-.03-12.49-2.02-5.42-6.32-8.42-11.55-10.14-10.5-3.45-21.22-2.86-31.94-1.28-1.19.18-1.65,1.13-1.16,2.31,1.85,4.44,3.55,8.95,5.67,13.25,2.68,5.44,6.07,10.44,10.89,14.29,4.74,3.8,10.06,5.64,16.18,4.59,3.76-.64,7.1-2.25,10.12-4.66,1.84,2.48,3.19,5.09,3.56,8.12.12.96.44,1.75,1.55,1.75,1.13,0,1.42-.78,1.49-1.77.29-4.07,1.35-7.95,2.94-11.69.31-.74.7-1.46,1.08-2.24.66.49,1.15.87,1.67,1.24,6.6,4.7,13.83,7.08,21.99,5.77,6.79-1.09,12.33-4.59,17.16-9.31,7.05-6.88,12.02-15.2,15.86-24.13,3.39-7.88,6.15-16.03,9.16-24.08.49-1.3-.13-2.09-1.72-2.37-10.55-1.84-21.17-2.54-31.85-1.66-7.01.57-13.88,1.88-20.33,4.84-11.56,5.31-17.51,14.23-17.45,27.05.03,6.31,1.41,12.34,3.31,18.3.18.55.3,1.27.1,1.77-1.3,3.19-2.7,6.33-4.1,9.54Z"/>
      <path class="cls-1" d="M54.56,92.96c1.39-3.21,2.79-6.36,4.1-9.54.2-.5.08-1.22-.1-1.77-1.9-5.96-3.28-12-3.31-18.3-.06-12.82,5.9-21.73,17.45-27.05,6.45-2.97,13.32-4.27,20.33-4.84,10.68-.87,21.3-.17,31.85,1.66,1.6.28,2.21,1.07,1.72,2.37-3.01,8.04-5.77,16.2-9.16,24.08-3.84,8.93-8.82,17.25-15.86,24.13-4.83,4.72-10.37,8.22-17.16,9.31-8.16,1.31-15.39-1.07-21.99-5.77-.51-.37-1.01-.75-1.67-1.24-.38.78-.76,1.5-1.08,2.24-1.58,3.74-2.64,7.62-2.94,11.69-.07.99-.36,1.77-1.49,1.77-1.11,0-1.44-.79-1.55-1.75-.37-3.03-1.72-5.64-3.56-8.12-3.02,2.42-6.36,4.02-10.12,4.66-6.12,1.05-11.44-.8-16.18-4.59-4.81-3.85-8.21-8.85-10.89-14.29-2.12-4.31-3.82-8.82-5.67-13.25-.49-1.18-.03-2.13,1.16-2.31,10.73-1.58,21.44-2.17,31.94,1.28,5.22,1.72,9.53,4.72,11.55,10.14,1.54,4.14,1.25,8.36.03,12.49-.51,1.72-.43,3.01.82,4.33.75.79,1.23,1.83,1.78,2.68ZM62.02,83.09c1.18.88,2.04,1.58,2.95,2.21,10.29,7.15,21.88,6.67,31.59-1.25,4.35-3.55,7.85-7.84,10.89-12.51,6.55-10.06,11.01-21.09,14.76-32.43.11-.34.17-.7.31-1.28-11.51,5.17-22.35,11-32.56,18.27,2.63.8,5.24,1.58,7.9,1.81,3.14.27,6.31.08,9.47.05,1.03-.01,1.77.34,1.85,1.4.07.99-.57,1.48-1.54,1.57-6.87.6-13.62.37-20.05-2.56-.4-.18-1.15-.06-1.51.21-2.82,2.17-5.62,4.36-8.34,6.64-1.8,1.51-3.46,3.18-5.29,4.88.71.48,1.17.84,1.67,1.13.84.48,1.69.97,2.57,1.37,6.42,2.97,13.08,3.12,19.85,1.57,1.15-.26,2.15-.25,2.42,1.05.26,1.27-.77,1.65-1.76,1.88-5.59,1.27-11.19,1.45-16.79.02-3.62-.92-6.93-2.51-10.22-4.92-2.75,3.65-5.42,7.2-8.2,10.89ZM120.28,35.51c-.86-.16-1.32-.27-1.8-.33-8.68-1.02-17.38-1.39-26.09-.59-6.33.58-12.52,1.79-18.35,4.42-7.81,3.51-13.29,9.05-15.16,17.66-1.02,4.69-.83,9.39.03,14.06.53,2.83,1.27,5.63,1.95,8.59,2.38-2.93,4.5-5.64,6.74-8.25.71-.83.92-1.48.64-2.57-2.34-8.96-.9-17.34,4.14-25.1.63-.97,1.36-2.05,2.66-1.15,1.23.84.42,1.8-.08,2.78-1.26,2.46-2.62,4.9-3.5,7.5-1.62,4.79-1.77,9.71-.45,14.56,3.79-3.16,7.48-6.4,11.35-9.41,1.68-1.3,2.57-2.35,2.21-4.78-.77-5.2,1.36-9.8,4.04-14.15.56-.9,1.24-1.65,2.36-.97,1.2.72.69,1.63.21,2.64-1.2,2.48-2.39,4.99-3.32,7.57-.64,1.76-.7,3.68-.18,5.73,10.32-7.05,21.09-12.93,32.61-18.22ZM11.65,66.3c-.18.17-.36.33-.55.5,2.04,4.12,3.93,8.32,6.17,12.32,2.78,4.96,6.27,9.39,11.3,12.36,6.16,3.63,12.93,2.62,18.31-1.01.66-.45,1.36-1.05.56-1.88-1.27-1.32-2.64-2.55-3.94-3.8-5.42,3.44-11.13,4.12-17.15,2.98-1.09-.21-2.13-.53-1.86-1.89.27-1.35,1.34-1.18,2.44-1.08,2.27.21,4.56.42,6.83.31,2.51-.13,4.91-.86,7.21-2.4-2.18-1.49-4.23-2.81-6.17-4.27-1.36-1.02-2.57-1.19-4.25-.6-3.54,1.24-7.26,1.26-10.98.93-.99-.09-1.56-.63-1.5-1.61.06-1,.74-1.42,1.71-1.38.34.02.68.07,1.02.08,2.71.11,5.42.11,8.05-.64.05-.15.1-.31.15-.46-5.79-2.82-11.58-5.64-17.37-8.46ZM42.26,79.74c.55-3.32-.31-6.78-2.25-9.58-.4-.58-.94-1.28-.89-1.89.05-.62.74-1.18,1.3-1.98-3-.7-6.03-1.41-9.43-2.2,2.42,3.27,4.11,6.27,3.62,10.04-.03.25.18.65.4.8,2.36,1.6,4.75,3.17,7.25,4.82ZM31.64,72.71c-.03-1.99-.8-3.65-1.89-5.14-.91-1.25-1.21-2.3.53-3.36-5.37-.53-10.39-.47-15.61.1,5.76,2.85,11.3,5.6,16.97,8.4ZM41.73,67.23c3.78,6.29,3.83,6.53,3.33,14.28-.01.22,0,.53.14.66,1.21,1.13,2.45,2.23,3.74,3.39,2.69-8.24-.25-15.77-7.21-18.33Z"/>
      <path class="cls-2" d="M62.02,83.09c2.77-3.68,5.44-7.23,8.2-10.89,3.28,2.41,6.6,3.99,10.22,4.92,5.6,1.43,11.2,1.25,16.79-.02,1-.23,2.03-.61,1.76-1.88-.27-1.31-1.27-1.32-2.42-1.05-6.78,1.55-13.43,1.4-19.85-1.57-.88-.41-1.73-.89-2.57-1.37-.5-.29-.96-.64-1.67-1.13,1.83-1.7,3.49-3.37,5.29-4.88,2.72-2.28,5.52-4.47,8.34-6.64.36-.28,1.11-.4,1.51-.21,6.42,2.93,13.18,3.16,20.05,2.56.97-.08,1.61-.57,1.54-1.57-.08-1.07-.82-1.41-1.85-1.4-3.16.03-6.34.22-9.47-.05-2.66-.23-5.27-1.01-7.9-1.81,10.21-7.27,21.05-13.1,32.56-18.27-.14.58-.2.94-.31,1.28-3.75,11.34-8.21,22.37-14.76,32.43-3.04,4.67-6.54,8.96-10.89,12.51-9.71,7.92-21.29,8.39-31.59,1.25-.91-.63-1.78-1.33-2.95-2.21Z"/>
      <path class="cls-2" d="M120.28,35.51c-11.51,5.29-22.29,11.17-32.61,18.22-.53-2.06-.46-3.97.18-5.73.94-2.59,2.13-5.09,3.32-7.57.48-1,.99-1.91-.21-2.64-1.12-.67-1.8.07-2.36.97-2.68,4.34-4.82,8.95-4.04,14.15.36,2.43-.53,3.47-2.21,4.78-3.87,3-7.56,6.25-11.35,9.41-1.31-4.85-1.17-9.77.45-14.56.88-2.6,2.25-5.04,3.5-7.5.5-.99,1.31-1.94.08-2.78-1.31-.89-2.03.18-2.66,1.15-5.04,7.76-6.49,16.14-4.14,25.1.29,1.1.07,1.75-.64,2.57-2.24,2.61-4.36,5.32-6.74,8.25-.68-2.97-1.42-5.76-1.95-8.59-.87-4.67-1.05-9.38-.03-14.06,1.87-8.61,7.36-14.14,15.16-17.66,5.83-2.63,12.02-3.83,18.35-4.42,8.72-.8,17.41-.43,26.09.59.47.06.94.17,1.8.33Z"/>
      <path class="cls-2" d="M11.65,66.3c5.79,2.82,11.58,5.64,17.37,8.46-.05.15-.1.31-.15.46-2.63.75-5.34.75-8.05.64-.34-.01-.68-.07-1.02-.08-.97-.04-1.65.38-1.71,1.38-.06.97.51,1.52,1.5,1.61,3.72.33,7.44.32,10.98-.93,1.68-.59,2.89-.42,4.25.6,1.94,1.46,3.99,2.77,6.17,4.27-2.29,1.54-4.7,2.27-7.21,2.4-2.27.11-4.56-.1-6.83-.31-1.1-.1-2.17-.28-2.44,1.08-.27,1.37.76,1.69,1.86,1.89,6.02,1.14,11.72.46,17.15-2.98,1.3,1.25,2.67,2.48,3.94,3.8.8.83.1,1.43-.56,1.88-5.38,3.63-12.15,4.65-18.31,1.01-5.02-2.96-8.51-7.39-11.3-12.36-2.25-4-4.13-8.21-6.17-12.32.18-.17.36-.33.55-.5Z"/>
      <path class="cls-2" d="M42.26,79.74c-2.5-1.66-4.89-3.22-7.25-4.82-.22-.15-.43-.55-.4-.8.48-3.76-1.21-6.77-3.62-10.04,3.4.79,6.43,1.5,9.43,2.2-.56.8-1.25,1.36-1.3,1.98-.05.61.49,1.31.89,1.89,1.94,2.81,2.8,6.26,2.25,9.58Z"/>
      <path class="cls-2" d="M31.64,72.71c-5.67-2.81-11.2-5.55-16.97-8.4,5.22-.57,10.25-.63,15.61-.1-1.74,1.06-1.44,2.11-.53,3.36,1.08,1.49,1.86,3.15,1.89,5.14Z"/>
      <path class="cls-2" d="M41.73,67.23c6.96,2.56,9.9,10.09,7.21,18.33-1.29-1.16-2.53-2.26-3.74-3.39-.14-.13-.16-.44-.14-.66.5-7.75.45-7.99-3.33-14.28Z"/>
    </g>
  </g>
</svg>