<?xml version="1.0" encoding="UTF-8"?>
<svg id="Layer_2" data-name="Layer 2" xmlns="http://www.w3.org/2000/svg" viewBox="0 0 347.12 355.49">
  <defs>
    <style>
      .cls-1 {
        fill: #000;
        stroke-width: 0px;
      }
    </style>
  </defs>
  <g id="Layer_1-2" data-name="Layer 1">
    <g>
      <path class="cls-1" d="M18.08,355.49c-3.76-2.04-4.94-5.17-4.93-9.44.1-66.75.07-133.5.07-200.25,0-7.26,2.21-9.44,9.59-9.45,6.34,0,12.67,0,19.21,0v-25.2c-1.41,0-2.65,0-3.89,0-10.07,0-20.13.03-30.2-.02-5.23-.03-7.89-2.69-7.9-7.94-.04-16.2-.11-32.39.11-48.58.03-2.16,1.16-4.86,2.7-6.36,15.84-15.4,31.83-30.65,47.93-45.79,1.44-1.35,3.88-2.24,5.88-2.29,9.6-.23,19.21-.22,28.81-.06,11.89.19,21.25,9.58,21.53,21.46.12,5.19.02,10.38.02,15.98,1.67.09,3.11.22,4.55.22,48.59.01,97.19,0,145.78.01,8.43,0,10.37,1.96,10.37,10.46,0,23.6.04,47.2-.06,70.8-.01,2.53.73,3.77,3.05,4.97,12.29,6.33,15.38,22.18,6.56,32.85-.72.87-1.48,1.7-2.39,2.73,10.95,7.02,21.74,13.94,32.53,20.85.78.5,1.63.91,2.34,1.49,8.45,7.03,17.91,10.24,29.08,8.94,5.66-.66,8.23,2.43,8.26,8.16.04,9.6.01,19.2.01,28.8,0,8.96-1.86,10.85-10.7,10.85-38.99,0-77.98,0-116.97,0-13.54,0-27.07.01-40.61,0-7.04,0-9.36-2.35-9.36-9.38,0-10.06-.02-20.13,0-30.19.02-5.81,2.5-8.89,8.15-8.24,10.67,1.22,19.35-2.49,28-8.28,12.76-8.55,26.08-16.26,39.39-24.47-.76-1.11-1.49-2.08-2.11-3.11-2.01-3.34-1.32-7.04,1.67-9.26,2.84-2.11,6.53-1.79,9.14.81.65.65,1.17,1.45,1.85,2.06,2.61,2.3,5.58,2.81,8.67,1.19,3.07-1.6,4.48-4.27,4.08-7.74-.39-3.38-2.89-5.95-6.22-6.59-7.16-1.38-8.24-2.64-8.24-9.83,0-12.96,0-25.91,0-38.87,0-1.26,0-2.52,0-4.51-49.01,9.25-97.63,18.43-146.8,27.72,0,1.44,0,2.89,0,4.33,0,77.28-.02,154.55.06,231.83,0,4.25-1.1,7.43-5.02,9.33h-54.85c-3.91-1.9-5.07-5.05-5.06-9.31.09-63.74.06-127.48.06-191.22,0-1.45,0-2.91,0-4.48h-15.14c0,1.6,0,2.98,0,4.35,0,63.74-.03,127.48.07,191.22,0,4.26-1.18,7.39-4.93,9.44h-4.17ZM14.13,86.16v10.88h78.75v-45.38c-7.56,0-14.83.03-22.1,0-13.16-.06-21.6-8.48-21.8-21.71-.03-1.9,0-3.79,0-6.7-8.5,8.11-16.19,15.45-23.88,22.78,3.52.77,6.73.58,9.91.82,3.97.3,6.75,3.51,6.58,7.15-.17,3.63-2.9,6.31-6.79,6.56-1.73.11-3.47.06-5.2.06-5.16,0-10.33,0-15.45,0v11.65c6.7,0,13.16.03,19.63-.01,2.88-.02,5.23.93,6.77,3.43,2.88,4.69-.43,10.32-6.24,10.43-6.68.13-13.36.03-20.18.03ZM183.54,224.49h149.44v-19.69h-149.44v19.69ZM219.11,190.43h78.16c-12.82-8.21-24.83-15.95-36.93-23.55-.77-.48-2.4-.25-3.29.25-4.01,2.28-7.9,4.77-11.83,7.2-8.42,5.19-16.84,10.39-26.11,16.1ZM93.06,37.75c0-5.9.24-11.42-.09-16.91-.21-3.56-2.68-6.36-6.14-6.54-7.89-.42-15.82-.13-23.89-.13,0,5.91-.15,11.56.05,17.2.14,3.86,2.61,6.27,6.41,6.34,7.72.14,15.45.04,23.66.04ZM107.2,95.83c10.2-1.93,20.19-3.81,30.96-5.84-10.55-9.89-20.52-19.24-30.96-29.03v34.87ZM92.84,341.5v-35.6c-9.85,12.1-19.25,23.65-28.98,35.6h28.98ZM56.38,293.08v35.6c9.89-12.14,19.28-23.66,29-35.6h-29ZM92.97,184.14c-9.79,11.61-19.05,22.6-28.64,33.98h28.64v-33.98ZM56.27,206.13c9.91-11.78,19.18-22.79,28.72-34.13h-28.72v34.13ZM92.96,244.71c-9.79,11.63-19.08,22.66-28.73,34.12h28.73v-34.12ZM173.54,51.9c2.2,1.74,3.78,3.02,5.39,4.27,8.13,6.3,16.24,12.63,24.45,18.82,1.24.93,2.97,1.2,4.48,1.77.29-1.39.79-2.78.82-4.18.1-5.08.04-10.17.04-15.26,0-1.8,0-3.59,0-5.42h-35.17ZM56.24,145.58c9.93-11.8,19.22-22.83,28.77-34.18h-28.77v34.18ZM93.03,123.48c-9.82,11.65-19.12,22.69-28.72,34.09h28.72v-34.09ZM56.29,266.69c9.9-11.76,19.14-22.73,28.71-34.1h-28.71v34.1ZM159.98,59.05v26.8c9.22-1.75,18.15-3.44,27.84-5.28-9.63-7.44-18.52-14.31-27.84-21.52ZM117.9,51.9c9.48,8.91,18.41,17.29,27.79,26.1v-26.1h-27.79ZM239.71,70.82c-6.02-4.35-11.19-8.1-16.85-12.19v15.3c5.51-1.01,10.77-1.98,16.85-3.1ZM238.32,51.86c-.08.22-.16.43-.24.65,5.03,3.63,10.07,7.27,15.51,11.2v-11.85h-15.27Z"/>
      <path class="cls-1" d="M152.78,355.49c-3.87-1.71-5.28-4.7-5.17-8.87.18-7.05.05-14.11.05-21.16,0-1.24,0-2.49,0-4.02-2.26,0-4.11.12-5.93-.03-3.71-.3-6.38-2.76-6.43-6.47-.14-11.68-.14-23.36.02-35.03.05-3.68,2.82-6.05,6.55-6.33,1.04-.08,2.08-.04,3.12-.04,52.62,0,105.25,0,157.87,0,7.88,0,9.79,1.91,9.79,9.84,0,7.95,0,15.9,0,24.21,2.08,0,3.78-.06,5.48.01,4.1.18,6.88,2.67,6.92,6.7.13,11.45.04,22.9.05,34.34,0,3.52-2.26,5.34-5.01,6.84h-167.33ZM298.59,287.63h-149.28v19.96c6.13,0,12.01-.03,17.88,0,4.45.03,7.6,2.83,7.67,6.76.08,4.04-3.13,7.02-7.73,7.12-1.8.04-3.61,0-5.39,0v19.93h149.24v-19.93h-7.51c-23.25,0-46.49,0-69.74,0-.93,0-1.85.02-2.78-.01-4.47-.17-7.43-2.97-7.42-7.02.02-4.09,2.95-6.84,7.5-6.85,21.28-.03,42.56-.01,63.84-.01,1.23,0,2.45,0,3.7,0v-19.96Z"/>
      <path class="cls-1" d="M199.37,321.43c-3.84.07-7.04-3.11-7.02-6.97.02-3.7,3.09-6.8,6.78-6.86,3.68-.06,6.89,2.95,7.04,6.62.16,3.81-2.98,7.14-6.81,7.21Z"/>
    </g>
  </g>
</svg>