<?xml version="1.0" encoding="UTF-8"?>
<svg id="Layer_2" data-name="Layer 2" xmlns="http://www.w3.org/2000/svg" viewBox="0 0 74.39 74.39">
  <defs>
    <style>
      .cls-1 {
        fill: #000;
      }

      .cls-1, .cls-2 {
        stroke-width: 0px;
      }

      .cls-2 {
        fill: none;
      }
    </style>
  </defs>
  <g id="Layer_3" data-name="Layer 3">
    <rect class="cls-2" width="74.39" height="74.39"/>
    <path class="cls-1" d="M20.91,27.32c.39,1.52.67,2.59,1.07,4.18,1.1-1.48,2-2.69,3.11-4.18,1.57.9,3.13,1.81,5.27,3.04-6.17,6.81-8.22,14.23-3.82,22.7h6.92c0-7.19.39-14.39-.23-21.49-.2-2.3-3.04-4.38-4.71-6.54-1.44-1.87-2.93-3.7-4.61-5.83,1.51-1.23,2.9-2.36,4.5-3.66,1.59,1.84,3.01,3.5,4.8,5.58.24-1.46.4-2.47.59-3.65h5.45c.15.97.3,2.01.55,3.64,1.72-1.96,3.22-3.66,4.88-5.56,1.48,1.17,2.81,2.23,4.53,3.59-2.69,3.37-5.37,6.44-7.68,9.77-1.05,1.51-1.85,3.51-1.92,5.32-.23,6.18-.09,12.37-.09,18.77h10.39c4.65-7.81.14-13.76-4.01-19.94,1.87-1.11,3.42-2.03,5.09-3.02.92,1.38,1.73,2.6,2.85,4.29.5-1.59.88-2.79,1.35-4.27,1.77.35,3.43.68,5.2,1.02v4.22c1.46-.91,2.67-1.66,4.16-2.59,1.09,1.33,2.16,2.65,3.42,4.18-4.2,4.93-12.63,6.95-10.71,16.15h8.96v5.79H9.87v-5.59h9.18c2.29-11.73-7.38-15.16-14.16-21.02,1.13-1.49,2.23-2.93,3.54-4.65,2.36,1.76,4.59,3.44,7.12,5.33v-4.6c1.66-.32,3.32-.63,5.36-1.02Z"/>
  </g>
</svg>