<svg id="Слой_1" viewBox="0 0 32 32" xmlns="http://www.w3.org/2000/svg"><path d="M13.2905,11.789a1.9205,1.9205,0,0,0-1.918,1.9189v9.3643a4.022,4.022,0,1,0,3.831,0V13.7079A1.9183,1.9183,0,0,0,13.2905,11.789Zm3.0488,14.8086a3.0518,3.0518,0,1,1-4.2852-2.7906.4425.4425,0,0,0,.0523-.0371.4565.4565,0,0,0,.0986-.07,2.8582,2.8582,0,0,0,.1016-.1553.4812.4812,0,0,0,.0273-.1367.4563.4563,0,0,0,.0093-.0454V13.7079a.9448.9448,0,1,1,1.89,0v9.6548c0,.0142.0069.0259.0078.04a.5056.5056,0,0,0,.0289.1435.5362.5362,0,0,0,.0454.0713.4783.4783,0,0,0,.0561.0835,43.4806,43.4806,0,0,0,.1519.1069A3.0452,3.0452,0,0,1,16.3393,26.5976Z"></path><path d="M13.2875,14.5048a.4847.4847,0,0,0-.4853.4854V26.75a.4854.4854,0,1,0,.9707,0V14.99A.4847.4847,0,0,0,13.2875,14.5048Z"></path><path d="M22.79,17.2489l.66,3.0645a.4859.4859,0,0,0,.8282.23,11.2717,11.2717,0,0,0,3.0586-8.6973,11.3891,11.3891,0,0,0-5.2579-8.7.4734.4734,0,0,0-.1337-.084A11.2377,11.2377,0,0,0,16.811,1.4052a11.43,11.43,0,0,0-11.6592,7.93c-.0039.01-.0069.021-.01.0317A11.1612,11.1612,0,0,0,4.75,11.0824a11.4684,11.4684,0,0,0-.1211,1.6656,11.2979,11.2979,0,0,0,3.33,8.0405.4873.4873,0,0,0,.3437.1421.5041.5041,0,0,0,.1075-.0117.4862.4862,0,0,0,.3506-.3116l1.1914-3.3632a2.7953,2.7953,0,0,0-.5821-2.835,1.83,1.83,0,0,1-.4521-.8984l-.2-1.0479a2.7822,2.7822,0,0,0-.8457-1.5283L6.1684,9.3525A10.481,10.481,0,0,1,16.7446,2.3739a10.271,10.271,0,0,1,4.2421,1.252L18.8832,5.8925a1.49,1.49,0,0,1-1.09.4756h-1.127a2.4588,2.4588,0,0,0-.624,4.8369l.5488.144a1.4827,1.4827,0,0,1,1.0381.9829l.5742,1.7823a2.4645,2.4645,0,0,0,1.83,1.6513l1.61.3418A1.4876,1.4876,0,0,1,22.79,17.2489ZM7.2123,11.6464a1.8458,1.8458,0,0,1,.5518.998l.1992,1.0479a2.8023,2.8023,0,0,0,.6934,1.375,1.8259,1.8259,0,0,1,.38,1.8525l-.9238,2.6075A10.3276,10.3276,0,0,1,5.6,12.748a10.48,10.48,0,0,1,.1114-1.5235q.0615-.42.1562-.8261Zm11.9151,2.17-.5743-1.7827a2.4485,2.4485,0,0,0-1.7158-1.624l-.5488-.1441a1.4887,1.4887,0,0,1-1.0576-1.8291,1.491,1.491,0,0,1,1.4355-1.0971h1.127a2.4623,2.4623,0,0,0,1.8017-.7862l2.2364-2.4087a10.392,10.392,0,0,1,2.3623,15.0108l-.4551-2.11a2.46,2.46,0,0,0-1.8936-1.8877l-1.61-.3418A1.4923,1.4923,0,0,1,19.1274,13.8163Z"></path><path d="M20.9975,17.5058a.4852.4852,0,0,0-.4854-.4859h-3.67a.4856.4856,0,0,0,0,.9712h3.67A.485.485,0,0,0,20.9975,17.5058Z"></path><path d="M20.2768,19.807a.4855.4855,0,0,0-.4854-.4858H16.8422a.4859.4859,0,0,0,0,.9717h2.9492A.4855.4855,0,0,0,20.2768,19.807Z"></path><path d="M19.1625,22.1083a.4849.4849,0,0,0-.4853-.4853h-1.835a.4856.4856,0,0,0,0,.9712h1.835A.4851.4851,0,0,0,19.1625,22.1083Z"></path></svg>