<svg xmlns="http://www.w3.org/2000/svg" xmlns:xlink="http://www.w3.org/1999/xlink" version="1.1" viewBox="0 0 278.546 237.91" style="enable-background:new 0 0 278.546 237.91;" xml:space="preserve"><g id="Demolition_crane_x2C__construction_x2C__Construction_Vehicle_x2C__truck"><g><path d="M76.178,230.91h-12c-1.933,0-3.5,1.567-3.5,3.5c0,1.933,1.567,3.5,3.5,3.5h12c1.933,0,3.5-1.567,3.5-3.5    C79.678,232.477,78.111,230.91,76.178,230.91z"></path><path d="M87.93,188.482c0-1.933-1.567-3.5-3.5-3.5h-12c-1.933,0-3.5,1.567-3.5,3.5c0,1.933,1.567,3.5,3.5,3.5h12    C86.363,191.982,87.93,190.414,87.93,188.482z"></path><path d="M63.93,188.482c0-1.933-1.567-3.5-3.5-3.5h-12c-1.933,0-3.5,1.567-3.5,3.5c0,1.933,1.567,3.5,3.5,3.5h12    C62.363,191.982,63.93,190.414,63.93,188.482z"></path><path d="M16.15,190.588c-1.105-1.586-3.287-1.977-4.873-0.871c-3.8,2.647-6.852,6.255-8.827,10.433    c-0.826,1.747-0.079,3.834,1.669,4.659c0.483,0.229,0.992,0.337,1.493,0.337c1.312,0,2.569-0.741,3.167-2.006    c1.453-3.074,3.7-5.729,6.499-7.679C16.864,194.356,17.254,192.175,16.15,190.588z"></path><path d="M6.989,213.035c-0.156-1.927-1.848-3.366-3.77-3.207c-1.927,0.155-3.363,1.843-3.208,3.769    c0.373,4.615,1.961,9.068,4.594,12.879c0.679,0.982,1.771,1.51,2.882,1.51c0.687,0,1.38-0.201,1.987-0.621    c1.59-1.099,1.989-3.278,0.89-4.869C8.429,219.697,7.262,216.426,6.989,213.035z"></path><path d="M28.178,230.91h-1.789c-2.933,0-5.748-0.635-8.371-1.886c-1.744-0.829-3.834-0.093-4.666,1.652    c-0.833,1.744-0.093,3.833,1.651,4.666c3.571,1.703,7.401,2.567,11.385,2.567h1.789c1.933,0,3.5-1.567,3.5-3.5    C31.678,232.477,30.111,230.91,28.178,230.91z"></path><path d="M52.178,230.91h-12c-1.933,0-3.5,1.567-3.5,3.5c0,1.933,1.567,3.5,3.5,3.5h12c1.933,0,3.5-1.567,3.5-3.5    C55.678,232.477,54.111,230.91,52.178,230.91z"></path><path d="M111.93,188.482c0-1.933-1.567-3.5-3.5-3.5h-12c-1.933,0-3.5,1.567-3.5,3.5c0,1.933,1.567,3.5,3.5,3.5h12    C110.363,191.982,111.93,190.414,111.93,188.482z"></path><path d="M124.178,230.91h-12c-1.933,0-3.5,1.567-3.5,3.5c0,1.933,1.567,3.5,3.5,3.5h12c1.933,0,3.5-1.567,3.5-3.5    C127.678,232.477,126.111,230.91,124.178,230.91z"></path><path d="M156.087,199.62c1.496-1.225,1.717-3.43,0.493-4.926c-2.937-3.588-6.77-6.353-11.087-7.993    c-1.805-0.685-3.829,0.221-4.515,2.027c-0.687,1.808,0.221,3.829,2.028,4.516c3.174,1.207,5.995,3.241,8.156,5.884    c0.692,0.846,1.697,1.283,2.711,1.283C154.652,200.411,155.436,200.153,156.087,199.62z"></path><path d="M100.178,230.91h-12c-1.933,0-3.5,1.567-3.5,3.5c0,1.933,1.567,3.5,3.5,3.5h12c1.933,0,3.5-1.567,3.5-3.5    C103.678,232.477,102.111,230.91,100.178,230.91z"></path><path d="M158.191,204.265c-1.908,0.311-3.203,2.109-2.892,4.018c0.169,1.038,0.255,2.102,0.256,3.163    c0,3.414-0.896,6.771-2.591,9.71c-0.966,1.675-0.392,3.815,1.283,4.78c0.551,0.318,1.152,0.47,1.746,0.47    c1.21,0,2.387-0.629,3.035-1.752c2.308-4,3.527-8.567,3.527-13.209c-0.001-1.438-0.117-2.881-0.347-4.289    C161.897,205.247,160.098,203.951,158.191,204.265z"></path><path d="M145.863,228.282c-2.932,1.707-6.285,2.615-9.698,2.627c-1.933,0.007-3.495,1.579-3.488,3.513    c0.007,1.929,1.572,3.487,3.499,3.487c0.004,0,0.009,0,0.013,0c4.64-0.017,9.203-1.253,13.195-3.576    c1.671-0.973,2.236-3.115,1.264-4.786C149.677,227.876,147.534,227.311,145.863,228.282z"></path><path d="M71.757,95.209H31.7c-1.933,0-3.5,1.567-3.5,3.5v41.257c0,1.933,1.567,3.5,3.5,3.5h40.057c1.933,0,3.5-1.567,3.5-3.5    V98.709C75.257,96.776,73.69,95.209,71.757,95.209z M68.257,136.466H35.2v-34.257h33.057V136.466z"></path><path d="M46.473,121.358c0.936,0,1.869-0.373,2.558-1.11l6.508-6.961c1.32-1.412,1.246-3.627-0.167-4.947    c-1.413-1.321-3.628-1.246-4.947,0.167l-6.508,6.961c-1.32,1.412-1.246,3.627,0.166,4.947    C44.759,121.045,45.617,121.358,46.473,121.358z"></path><path d="M44.294,132.359c0.684,0.684,1.58,1.025,2.475,1.025s1.792-0.342,2.475-1.025l16.01-16.01c1.367-1.367,1.367-3.583,0-4.95    c-1.367-1.366-3.583-1.366-4.95,0l-16.01,16.011C42.928,128.776,42.928,130.992,44.294,132.359z"></path><path d="M246.845,131.018c0.662-1.009,0.797-2.324,0.219-3.482c-1.152-2.305-4.279-6.408-7.373-10.229    c0.745-1.486,1.474-2.92,2.142-4.235c0.566-1.115,1.088-2.143,1.565-3.094c1.055-0.941,1.481-2.464,0.944-3.861    c-1.247-3.241-3.054-6.597-5.042-9.896c1.89-3.338,3.578-6.621,4.544-9.585c1.425-1.156,1.733-3.227,0.652-4.74    c-1.214-1.699-3.535-4.68-6.028-7.588c0.244-0.417,0.487-0.834,0.729-1.248c1.656-2.842,3.221-5.526,4.747-7.706    c0.604-0.863,0.75-1.899,0.516-2.847c0.334-1.293-0.086-2.72-1.196-3.609c-1.335-1.068-2.951-3.135-4.465-5.603    c2.116-4.585,3.785-8.763,4.051-11.958c0.389-4.669-1.01-6.7-2.476-8.381c-0.686-0.787-0.943-1.081-0.943-2.774    c0-0.336-0.062-0.655-0.151-0.963c0.183-0.289,0.326-0.52,0.424-0.686c0.936-1.586,0.484-3.625-1.035-4.667L204.739,0.613    c-0.775-0.531-1.732-0.728-2.654-0.547c-0.922,0.182-1.733,0.727-2.249,1.512c-16.328,24.847-85.253,128.779-93.82,141.695    l-9.631-0.176c0.208-9.869,0.712-38.042,0.088-53.016c-0.428-7.279-0.643-10.933-2.975-13.556    c-2.477-2.787-6.032-3.024-12.485-3.454c-0.078-0.005-0.155-0.008-0.233-0.008c-1.418,0-4.4-0.117-8.175-0.266    c-42.396-1.667-59.138-0.479-63.752,4.541c-3.79,3.937-5.338,17.127-3.33,76.986c0.254,7.567,0.473,14.104,0.473,17.662    c0,0.989,0.419,1.932,1.151,2.595c0.733,0.663,1.713,0.988,2.697,0.888c10.626-1.057,11.831,1.879,14.474,8.321    c0.169,0.411,0.344,0.834,0.52,1.257c-0.233,0.014-0.473,0.01-0.703,0.03c-1.926,0.163-3.355,1.857-3.191,3.783    c0.155,1.825,1.684,3.204,3.483,3.204c0.099,0,0.199-0.004,0.3-0.013c0.542-0.046,1.102-0.069,1.66-0.07H36.43    c1.933,0,3.5-1.567,3.5-3.5c0-1.933-1.567-3.5-3.5-3.5h-4.072c-0.052-0.243-0.126-0.485-0.234-0.721    c-0.488-1.073-0.917-2.121-1.329-3.127c-2.62-6.387-5.323-12.982-17.845-12.849c-0.077-3.64-0.239-8.486-0.431-14.195    c-0.447-13.329-1.003-29.917-0.92-44.331c0.129-22.375,1.802-26.783,2.349-27.621c0.016-0.017,0.031-0.034,0.05-0.055    c0.281-0.264,3.328-2.593,23.584-2.958c12.171-0.22,25.759,0.314,34.748,0.667c3.902,0.153,6.748,0.265,8.33,0.271    c3.633,0.242,7.039,0.475,7.606,1.112c0.718,0.808,0.95,4.751,1.215,9.256c0.748,17.972-0.164,55.636-0.173,56.015    c-0.023,0.932,0.327,1.834,0.972,2.507c0.645,0.674,1.532,1.061,2.463,1.078l15.004,0.273l23.722,18.69    c2.065,3.705,1.859,8.195,1.624,13.36c-0.04,0.879-0.08,1.774-0.11,2.682c-0.182-0.029-0.364-0.056-0.554-0.056h-12    c-1.933,0-3.5,1.567-3.5,3.5c0,1.933,1.567,3.5,3.5,3.5h12c1.033,0,1.952-0.456,2.592-1.168c0.433,0.192,0.909,0.303,1.413,0.303    c1.933,0,3.5-1.567,3.5-3.5c0-1.643,0.077-3.319,0.151-4.94c0.069-1.509,0.138-3.032,0.148-4.554    c0.234-0.302,0.425-0.644,0.553-1.025c2.275-5.147,44.314-67.395,69.46-104.63c6.843-10.133,12.88-19.072,17.692-26.222    c0.732,2.469,1.779,4.963,2.993,7.309c-0.326,0.681-0.65,1.352-0.963,2.002c-2.622,5.437-4.887,10.132-5.49,13.454    c-0.324,1.778,0.766,3.469,2.461,3.967c0.336,0.259,0.715,0.465,1.133,0.588c0.403,0.289,1.006,0.856,1.722,1.59    c-1.451,2.334-2.962,4.58-4.582,6.559c-0.663,0.81-0.888,1.826-0.73,2.784c-0.138,0.823,0.003,1.696,0.487,2.455    c0.906,1.423,1.927,2.962,2.999,4.578c1.035,1.56,2.107,3.181,3.162,4.824c-0.163,0.277-0.325,0.553-0.486,0.826    c-2.147,3.649-4.176,7.096-5.382,9.991c-0.586,1.408-0.174,2.971,0.898,3.937c0.062,0.716,0.333,1.419,0.843,2.001    c1.281,1.464,2.822,3.266,4.405,5.16c-1.761,3.631-3.407,7.235-4.488,10.208c-0.162,0.444-0.225,0.9-0.206,1.345    c-20.883,3.576-36.83,21.796-36.83,43.682c0,24.444,19.887,44.331,44.331,44.331s44.331-19.887,44.331-44.331    C278.546,153.449,265.154,136.47,246.845,131.018z M215.167,52.67l-8.512-42.259l25.253,17.309    C228.952,32.212,222.781,41.385,215.167,52.67z M142.274,161.436l-7.49-36.38c4.079,3.056,10.184,7.499,19.341,14.129    c0.096,0.328,0.197,0.654,0.291,0.983c0.167,0.585,0.475,1.091,0.874,1.495C149.89,149.777,145.567,156.341,142.274,161.436z     M161.766,71.836c2.535,7.418,4.115,15.044,5.639,22.459c0.677,3.297,1.373,6.654,2.152,10.023    c-2.025-1.389-4.272-2.93-6.522-4.47c-3.574-2.445-7.151-4.886-9.843-6.707c-1.356-0.917-2.49-1.679-3.288-2.206    c-0.168-0.111-0.354-0.234-0.554-0.359C153.426,84.426,157.603,78.121,161.766,71.836z M133.189,114.959    c3.14-4.737,6.492-9.793,9.973-15.046c1.33,9.553,4.2,18.278,7.209,27.405c0.068,0.205,0.136,0.414,0.204,0.62    C142.545,122.066,135.455,116.8,133.189,114.959z M160.042,134.532c-0.982-3.207-2.014-6.345-3.024-9.405    c-2.832-8.592-5.534-16.812-6.829-25.564c5.975,4.053,15.83,10.811,22.82,15.622C168.219,122.312,163.908,128.743,160.042,134.532    z M177.735,108.158c-1.358-5.066-2.439-10.235-3.473-15.271c-1.207-5.875-2.448-11.879-4.169-17.892    c4.446,3.101,10.969,7.541,20.534,14.029C186.031,95.837,181.737,102.211,177.735,108.158z M166.922,64.053    c4.019-6.068,7.975-12.042,11.758-17.757c0.471,9.119,2.749,20.575,5.488,29.843C176.535,70.902,169.111,65.744,166.922,64.053z     M200.189,13.765l7.507,37.268l-21.994-15.349C191.3,27.223,196.275,19.697,200.189,13.765z M112.946,145.489    c2.657-4.006,7.817-11.787,14.42-21.747l8.137,39.519L112.946,145.489z M194.542,83.221c-0.415-0.282-0.839-0.57-1.27-0.863    c0.05-0.514-0.001-1.044-0.194-1.56c-4.121-10.99-7.239-26.625-7.478-36.649l24.009,16.755c-1.683,2.493-3.408,5.047-5.163,7.646    C201.004,73.646,197.713,78.52,194.542,83.221z M233.907,38.872c0.127-1.059,0.456-1.551,0.769-1.814    c0.139,0.17,0.278,0.338,0.419,0.499c0.692,0.793,0.951,1.09,0.775,3.199c-0.085,1.024-0.488,2.421-1.073,4.016    C234.09,42.565,233.714,40.489,233.907,38.872z M237.233,62.792c-1.247,1.904-2.482,3.992-3.76,6.185    c-0.507-0.461-0.963-0.838-1.376-1.136c0.758-2.034,1.963-4.628,3.242-7.299C235.985,61.383,236.62,62.139,237.233,62.792z     M233.801,87.66c-0.696-1.049-1.354-2.047-1.987-3.018c0.981-1.296,1.91-2.651,2.808-4.033c0.952,1.149,1.88,2.31,2.712,3.391    c-0.458,1.584-1.3,3.466-2.333,5.47C234.598,88.861,234.196,88.254,233.801,87.66z M232.32,108.556    c0.763-1.589,1.782-3.41,2.911-5.355c0.688,1.266,1.318,2.515,1.861,3.736c-0.46,0.915-0.959,1.898-1.501,2.965    c-0.254,0.5-0.519,1.023-0.782,1.541C233.587,110.009,232.673,108.96,232.32,108.556z M236.297,124.288    c1.633,2.083,3.021,3.957,3.873,5.298c-1.949-0.263-3.934-0.411-5.954-0.411c-0.021,0-0.041,0.002-0.062,0.002    C234.762,127.67,235.496,126.01,236.297,124.288z M234.216,210.836c-20.584,0-37.331-16.747-37.331-37.331    c0-20.584,16.747-37.33,37.331-37.33s37.331,16.746,37.331,37.33C271.546,194.089,254.8,210.836,234.216,210.836z"></path><path d="M47.995,211.173c0-7.028-5.718-12.746-12.747-12.746c-7.028,0-12.746,5.718-12.746,12.746    c0,7.028,5.718,12.746,12.746,12.746C42.277,223.919,47.995,218.201,47.995,211.173z M35.249,216.919    c-3.169,0-5.746-2.578-5.746-5.746c0-3.168,2.578-5.746,5.746-5.746s5.747,2.578,5.747,5.746    C40.995,214.341,38.417,216.919,35.249,216.919z"></path><path d="M64.669,223.919c7.028,0,12.747-5.718,12.747-12.746c0-7.028-5.718-12.746-12.747-12.746    c-7.028,0-12.746,5.718-12.746,12.746C51.923,218.201,57.64,223.919,64.669,223.919z M64.669,205.427    c3.168,0,5.747,2.578,5.747,5.746c0,3.168-2.578,5.746-5.747,5.746c-3.168,0-5.746-2.578-5.746-5.746    C58.923,208.005,61.5,205.427,64.669,205.427z"></path><path d="M93.509,198.427c-7.028,0-12.746,5.718-12.746,12.746c0,7.028,5.718,12.746,12.746,12.746    c7.028,0,12.746-5.718,12.746-12.746C106.256,204.145,100.537,198.427,93.509,198.427z M93.509,216.919    c-3.169,0-5.746-2.578-5.746-5.746c0-3.168,2.578-5.746,5.746-5.746c3.168,0,5.746,2.578,5.746,5.746    C99.256,214.341,96.678,216.919,93.509,216.919z"></path><path d="M122.929,198.427c-7.028,0-12.746,5.718-12.746,12.746c0,7.028,5.718,12.746,12.746,12.746    c7.028,0,12.747-5.718,12.747-12.746C135.676,204.145,129.957,198.427,122.929,198.427z M122.929,216.919    c-3.169,0-5.746-2.578-5.746-5.746c0-3.168,2.578-5.746,5.746-5.746c3.168,0,5.747,2.578,5.747,5.746    C128.676,214.341,126.097,216.919,122.929,216.919z"></path></g></g><g id="Capa_1"></g></svg>