<?xml version="1.0" encoding="UTF-8"?>
<svg id="a" data-name="Layer 1" xmlns="http://www.w3.org/2000/svg" viewBox="0 0 153.7 23.3">
  <defs>
    <style>
      .b {
        opacity: .66;
      }

      .c {
        fill: #92c5ae;
        stroke-width: 0px;
      }
    </style>
  </defs>
  <g>
    <path class="c" d="M0,15C0,10.15,3.71,6.72,8.95,6.72c3.68,0,6.45,1.78,7.45,4.74l-4.85,2.51c-.64-1.49-1.55-2.1-2.63-2.1-1.41,0-2.58,1.05-2.58,3.13s1.16,3.16,2.58,3.16c1.08,0,1.99-.61,2.63-2.11l4.85,2.51c-1,2.95-3.77,4.74-7.45,4.74C3.71,23.3,0,19.88,0,15Z"/>
    <path class="c" d="M32.82,14.41v8.6h-5.82v-2.1c-.72,1.61-2.16,2.4-4.29,2.4-3.71,0-5.62-2.22-5.62-4.97,0-3.1,2.22-4.82,6.92-4.82h2.52c-.19-1.23-1.08-1.87-2.85-1.87-1.36,0-2.88.47-3.88,1.26l-1.99-4.36c1.77-1.17,4.46-1.81,6.81-1.81,5.21,0,8.2,2.37,8.2,7.69ZM26.56,17.8v-1.11h-1.55c-1.33,0-1.91.47-1.91,1.34,0,.73.55,1.29,1.5,1.29.86,0,1.63-.47,1.97-1.52Z"/>
    <path class="c" d="M46.39,6.72v5.85c-.55-.09-.94-.12-1.38-.12-1.88,0-3.21.91-3.21,3.45v7.1h-6.26V7.02h5.95v1.73c1.11-1.34,2.8-2.02,4.9-2.02Z"/>
    <path class="c" d="M65.59,15c0,5.15-3.35,8.3-7.31,8.3-1.88,0-3.24-.53-4.15-1.61v1.32h-5.95V1.32h6.26v6.78c.91-.94,2.19-1.37,3.85-1.37,3.96,0,7.31,3.13,7.31,8.27ZM59.25,15c0-2.08-1.08-3.13-2.46-3.13s-2.46,1.05-2.46,3.13,1.08,3.16,2.46,3.16,2.46-1.08,2.46-3.16Z"/>
    <path class="c" d="M66.75,15c0-4.85,3.68-8.27,8.81-8.27s8.81,3.42,8.81,8.27-3.66,8.3-8.81,8.3-8.81-3.45-8.81-8.3ZM78.03,15c0-2.08-1.08-3.13-2.46-3.13s-2.46,1.05-2.46,3.13,1.08,3.16,2.46,3.16,2.46-1.08,2.46-3.16Z"/>
    <path class="c" d="M103.06,13.89v9.12h-6.26v-7.98c0-1.99-.72-2.75-1.86-2.75-1.27,0-2.35.85-2.35,3.22v7.51h-6.26V7.02h5.95v1.58c1.19-1.26,2.8-1.87,4.57-1.87,3.49,0,6.2,2.13,6.2,7.16Z"/>
  </g>
  <g class="b">
    <path class="c" d="M105.87,2.54c0-1.43,1.08-2.54,2.69-2.54s2.69,1.05,2.69,2.46c0,1.52-1.08,2.63-2.69,2.63s-2.69-1.11-2.69-2.54ZM106.39,7.28h4.32v15.73h-4.32V7.28Z"/>
    <path class="c" d="M124.34,22.25c-.89.67-2.19.99-3.52.99-3.52,0-5.57-1.9-5.57-5.64v-6.46h-2.3v-3.51h2.3v-3.83h4.32v3.83h3.71v3.51h-3.71v6.4c0,1.34.69,2.08,1.86,2.08.64,0,1.27-.2,1.75-.58l1.16,3.22Z"/>
    <path class="c" d="M125.2,15.14c0-4.74,3.46-8.1,8.2-8.1s8.17,3.36,8.17,8.1-3.43,8.1-8.17,8.1-8.2-3.36-8.2-8.1ZM137.19,15.14c0-2.72-1.63-4.36-3.79-4.36s-3.82,1.64-3.82,4.36,1.66,4.36,3.82,4.36,3.79-1.64,3.79-4.36Z"/>
    <path class="c" d="M153.7,7.05v4.21c-.36-.03-.64-.06-.97-.06-2.38,0-3.96,1.37-3.96,4.39v7.43h-4.32V7.28h4.13v2.08c1.05-1.52,2.82-2.31,5.12-2.31Z"/>
  </g>
</svg>