<?xml version="1.0" encoding="UTF-8"?>
<svg id="Layer_2" data-name="Layer 2" xmlns="http://www.w3.org/2000/svg" viewBox="0 0 39.51 45.15">
  <defs>
    <style>
      .cls-1 {
        opacity: .33;
      }

      .cls-2 {
        opacity: .66;
      }

      .cls-3 {
        fill: #92c5ae;
        stroke-width: 0px;
      }
    </style>
  </defs>
  <g id="Text">
    <g>
      <g class="cls-1">
        <polygon class="cls-3" points="39.51 21.39 39.51 34.21 20.58 45.15 20.58 32.31 39.51 21.39"/>
      </g>
      <polygon class="cls-3" points="2.5 13.8 2.5 35.66 0 34.22 0 12.36 .82 12.83 1.65 13.31 2.5 13.8"/>
      <polygon class="cls-3" points="6.62 16.18 6.62 38.04 4.09 36.58 4.09 14.72 6.62 16.18"/>
      <polygon class="cls-3" points="10.74 18.56 10.74 40.42 8.21 38.96 8.21 17.1 9.47 17.83 10.29 18.3 10.74 18.56"/>
      <polygon class="cls-3" points="14.85 29.95 14.85 42.79 12.33 41.34 12.33 28.49 13.81 29.35 14.85 29.95"/>
      <polygon class="cls-3" points="18.93 32.3 18.93 45.15 16.44 43.71 16.44 30.87 18.93 32.3"/>
      <g class="cls-2">
        <polygon class="cls-3" points="38.7 10.93 37.87 11.41 29.22 16.4 28.39 16.88 27.57 17.35 19.75 12.84 11.94 17.35 11.12 16.87 10.29 16.4 2.47 11.88 1.65 11.4 .83 10.93 19.75 0 38.7 10.93"/>
      </g>
    </g>
  </g>
</svg>